<svg xmlns="http://www.w3.org/2000/svg" version="1.1" xmlns:xlink="http://www.w3.org/1999/xlink" xmlns:svgjs="http://svgjs.dev/svgjs" viewBox="0 0 1422 800" width="1422" height="800" opacity="0.43"><g transform="scale(1) rotate(0) translate(0 0) skewX(0) skewY(0)" transform-origin="711 400"><rect width="2844" height="1600" x="-711" y="-400" fill="url(#rrreplicate-pattern1)"></rect><rect width="2844" height="1600" x="-711" y="-400" fill="url(#rrreplicate-pattern2)"></rect><rect width="2844" height="1600" x="-711" y="-400" fill="url(#rrreplicate-pattern4)"></rect></g><defs><pattern id="rrreplicate-pattern1" width="382" height="382" patternUnits="userSpaceOnUse" patternTransform="rotate(30)" stroke-width="4" fill="none" stroke="#1c369f" stroke-opacity="0.48">
      <line x1="47.75" y1="0" x2="47.75" y2="382"></line><line x1="143.25" y1="0" x2="143.25" y2="382"></line><line x1="238.75" y1="0" x2="238.75" y2="382"></line><line x1="334.25" y1="0" x2="334.25" y2="382"></line>
      </pattern><pattern id="rrreplicate-pattern2" width="382" height="382" patternUnits="userSpaceOnUse" patternTransform="rotate(30)" stroke-opacity="0.67" stroke-width="2.2" fill="none" stroke="#41034e">
      <line x1="95.5" y1="0" x2="95.5" y2="382"></line><line x1="286.5" y1="0" x2="286.5" y2="382"></line>
      </pattern><pattern id="rrreplicate-pattern4" width="382" height="382" patternUnits="userSpaceOnUse" patternTransform="rotate(209)" stroke-opacity="0.13" stroke-width="2.2" fill="none" stroke="#417505">
      <line x1="23.875" y1="0" x2="23.875" y2="382"></line><line x1="71.625" y1="0" x2="71.625" y2="382"></line><line x1="119.375" y1="0" x2="119.375" y2="382"></line><line x1="167.125" y1="0" x2="167.125" y2="382"></line><line x1="214.875" y1="0" x2="214.875" y2="382"></line><line x1="262.625" y1="0" x2="262.625" y2="382"></line><line x1="310.375" y1="0" x2="310.375" y2="382"></line><line x1="358.125" y1="0" x2="358.125" y2="382"></line>
      </pattern></defs></svg>