<svg xmlns="http://www.w3.org/2000/svg" version="1.1" xmlns:xlink="http://www.w3.org/1999/xlink" xmlns:svgjs="http://svgjs.dev/svgjs" viewBox="0 0 800 800"><defs><linearGradient gradientTransform="rotate(270)" x1="50%" y1="0%" x2="50%" y2="100%" id="sssquiggly-grad"><stop stop-color="hsl(206, 75%, 49%)" stop-opacity="0.1" offset="0%"></stop><stop stop-color="hsl(331, 90%, 56%)" stop-opacity="0.1" offset="100%"></stop></linearGradient></defs><g stroke-width="5.5" stroke="url(#sssquiggly-grad)" fill="none" stroke-linecap="round" transform="matrix(1,0,0,1,-5,-97.83968734741211)"><path d="M10,10C17.720588235294116,21.25,29.534313725490197,75.25,47.05882352941177,64C64.58333333333334,52.75,74.50980392156863,-37.958333333333336,94.11764705882354,-44C113.72549019607844,-50.041666666666664,121.5686274509804,31.25,141.1764705882353,35C160.78431372549022,38.75,168.62745098039215,-32.041666666666664,188.23529411764707,-26C207.843137254902,-19.958333333333336,215.68627450980392,58.166666666666664,235.29411764705884,64C254.90196078431376,69.83333333333333,262.7450980392157,1.5833333333333335,282.3529411764706,2C301.9607843137255,2.4166666666666665,309.80392156862746,74.125,329.4117647058824,66C349.0196078431373,57.875,356.8627450980392,-33.666666666666664,376.47058823529414,-37C396.07843137254906,-40.333333333333336,403.921568627451,45.416666666666664,423.5294117647059,50C443.13725490196083,54.583333333333336,450.98039215686276,-19.166666666666668,470.5882352941177,-15C490.1960784313726,-10.833333333333332,498.0392156862746,70.83333333333333,517.6470588235295,70C537.2549019607844,69.16666666666667,545.0980392156863,-18.375,564.7058823529412,-19C584.3137254901961,-19.625,592.156862745098,59.916666666666664,611.7647058823529,67C631.3725490196078,74.08333333333333,639.2156862745098,17.708333333333332,658.8235294117648,15C678.4313725490197,12.291666666666668,686.2745098039217,53.583333333333336,705.8823529411766,54C725.4901960784315,54.416666666666664,733.3333333333334,12.833333333333332,752.9411764705883,17C772.5490196078432,21.166666666666668,790.1960784313726,62.125,800,74"></path><path d="M10,10C17.720588235294116,21.25,29.534313725490197,75.25,47.05882352941177,64C64.58333333333334,52.75,74.50980392156863,-37.958333333333336,94.11764705882354,-44C113.72549019607844,-50.041666666666664,121.5686274509804,31.25,141.1764705882353,35C160.78431372549022,38.75,168.62745098039215,-32.041666666666664,188.23529411764707,-26C207.843137254902,-19.958333333333336,215.68627450980392,58.166666666666664,235.29411764705884,64C254.90196078431376,69.83333333333333,262.7450980392157,1.5833333333333335,282.3529411764706,2C301.9607843137255,2.4166666666666665,309.80392156862746,74.125,329.4117647058824,66C349.0196078431373,57.875,356.8627450980392,-33.666666666666664,376.47058823529414,-37C396.07843137254906,-40.333333333333336,403.921568627451,45.416666666666664,423.5294117647059,50C443.13725490196083,54.583333333333336,450.98039215686276,-19.166666666666668,470.5882352941177,-15C490.1960784313726,-10.833333333333332,498.0392156862746,70.83333333333333,517.6470588235295,70C537.2549019607844,69.16666666666667,545.0980392156863,-18.375,564.7058823529412,-19C584.3137254901961,-19.625,592.156862745098,59.916666666666664,611.7647058823529,67C631.3725490196078,74.08333333333333,639.2156862745098,17.708333333333332,658.8235294117648,15C678.4313725490197,12.291666666666668,686.2745098039217,53.583333333333336,705.8823529411766,54C725.4901960784315,54.416666666666664,733.3333333333334,12.833333333333332,752.9411764705883,17C772.5490196078432,21.166666666666668,790.1960784313726,62.125,800,74" transform="matrix(1,0,0,1,0,966)"></path><path d="M10,10C17.720588235294116,21.25,29.534313725490197,75.25,47.05882352941177,64C64.58333333333334,52.75,74.50980392156863,-37.958333333333336,94.11764705882354,-44C113.72549019607844,-50.041666666666664,121.5686274509804,31.25,141.1764705882353,35C160.78431372549022,38.75,168.62745098039215,-32.041666666666664,188.23529411764707,-26C207.843137254902,-19.958333333333336,215.68627450980392,58.166666666666664,235.29411764705884,64C254.90196078431376,69.83333333333333,262.7450980392157,1.5833333333333335,282.3529411764706,2C301.9607843137255,2.4166666666666665,309.80392156862746,74.125,329.4117647058824,66C349.0196078431373,57.875,356.8627450980392,-33.666666666666664,376.47058823529414,-37C396.07843137254906,-40.333333333333336,403.921568627451,45.416666666666664,423.5294117647059,50C443.13725490196083,54.583333333333336,450.98039215686276,-19.166666666666668,470.5882352941177,-15C490.1960784313726,-10.833333333333332,498.0392156862746,70.83333333333333,517.6470588235295,70C537.2549019607844,69.16666666666667,545.0980392156863,-18.375,564.7058823529412,-19C584.3137254901961,-19.625,592.156862745098,59.916666666666664,611.7647058823529,67C631.3725490196078,74.08333333333333,639.2156862745098,17.708333333333332,658.8235294117648,15C678.4313725490197,12.291666666666668,686.2745098039217,53.583333333333336,705.8823529411766,54C725.4901960784315,54.416666666666664,733.3333333333334,12.833333333333332,752.9411764705883,17C772.5490196078432,21.166666666666668,790.1960784313726,62.125,800,74" transform="matrix(1,0,0,1,0,920)"></path><path d="M10,10C17.720588235294116,21.25,29.534313725490197,75.25,47.05882352941177,64C64.58333333333334,52.75,74.50980392156863,-37.958333333333336,94.11764705882354,-44C113.72549019607844,-50.041666666666664,121.5686274509804,31.25,141.1764705882353,35C160.78431372549022,38.75,168.62745098039215,-32.041666666666664,188.23529411764707,-26C207.843137254902,-19.958333333333336,215.68627450980392,58.166666666666664,235.29411764705884,64C254.90196078431376,69.83333333333333,262.7450980392157,1.5833333333333335,282.3529411764706,2C301.9607843137255,2.4166666666666665,309.80392156862746,74.125,329.4117647058824,66C349.0196078431373,57.875,356.8627450980392,-33.666666666666664,376.47058823529414,-37C396.07843137254906,-40.333333333333336,403.921568627451,45.416666666666664,423.5294117647059,50C443.13725490196083,54.583333333333336,450.98039215686276,-19.166666666666668,470.5882352941177,-15C490.1960784313726,-10.833333333333332,498.0392156862746,70.83333333333333,517.6470588235295,70C537.2549019607844,69.16666666666667,545.0980392156863,-18.375,564.7058823529412,-19C584.3137254901961,-19.625,592.156862745098,59.916666666666664,611.7647058823529,67C631.3725490196078,74.08333333333333,639.2156862745098,17.708333333333332,658.8235294117648,15C678.4313725490197,12.291666666666668,686.2745098039217,53.583333333333336,705.8823529411766,54C725.4901960784315,54.416666666666664,733.3333333333334,12.833333333333332,752.9411764705883,17C772.5490196078432,21.166666666666668,790.1960784313726,62.125,800,74" transform="matrix(1,0,0,1,0,874)"></path><path d="M10,10C17.720588235294116,21.25,29.534313725490197,75.25,47.05882352941177,64C64.58333333333334,52.75,74.50980392156863,-37.958333333333336,94.11764705882354,-44C113.72549019607844,-50.041666666666664,121.5686274509804,31.25,141.1764705882353,35C160.78431372549022,38.75,168.62745098039215,-32.041666666666664,188.23529411764707,-26C207.843137254902,-19.958333333333336,215.68627450980392,58.166666666666664,235.29411764705884,64C254.90196078431376,69.83333333333333,262.7450980392157,1.5833333333333335,282.3529411764706,2C301.9607843137255,2.4166666666666665,309.80392156862746,74.125,329.4117647058824,66C349.0196078431373,57.875,356.8627450980392,-33.666666666666664,376.47058823529414,-37C396.07843137254906,-40.333333333333336,403.921568627451,45.416666666666664,423.5294117647059,50C443.13725490196083,54.583333333333336,450.98039215686276,-19.166666666666668,470.5882352941177,-15C490.1960784313726,-10.833333333333332,498.0392156862746,70.83333333333333,517.6470588235295,70C537.2549019607844,69.16666666666667,545.0980392156863,-18.375,564.7058823529412,-19C584.3137254901961,-19.625,592.156862745098,59.916666666666664,611.7647058823529,67C631.3725490196078,74.08333333333333,639.2156862745098,17.708333333333332,658.8235294117648,15C678.4313725490197,12.291666666666668,686.2745098039217,53.583333333333336,705.8823529411766,54C725.4901960784315,54.416666666666664,733.3333333333334,12.833333333333332,752.9411764705883,17C772.5490196078432,21.166666666666668,790.1960784313726,62.125,800,74" transform="matrix(1,0,0,1,0,828)"></path><path d="M10,10C17.720588235294116,21.25,29.534313725490197,75.25,47.05882352941177,64C64.58333333333334,52.75,74.50980392156863,-37.958333333333336,94.11764705882354,-44C113.72549019607844,-50.041666666666664,121.5686274509804,31.25,141.1764705882353,35C160.78431372549022,38.75,168.62745098039215,-32.041666666666664,188.23529411764707,-26C207.843137254902,-19.958333333333336,215.68627450980392,58.166666666666664,235.29411764705884,64C254.90196078431376,69.83333333333333,262.7450980392157,1.5833333333333335,282.3529411764706,2C301.9607843137255,2.4166666666666665,309.80392156862746,74.125,329.4117647058824,66C349.0196078431373,57.875,356.8627450980392,-33.666666666666664,376.47058823529414,-37C396.07843137254906,-40.333333333333336,403.921568627451,45.416666666666664,423.5294117647059,50C443.13725490196083,54.583333333333336,450.98039215686276,-19.166666666666668,470.5882352941177,-15C490.1960784313726,-10.833333333333332,498.0392156862746,70.83333333333333,517.6470588235295,70C537.2549019607844,69.16666666666667,545.0980392156863,-18.375,564.7058823529412,-19C584.3137254901961,-19.625,592.156862745098,59.916666666666664,611.7647058823529,67C631.3725490196078,74.08333333333333,639.2156862745098,17.708333333333332,658.8235294117648,15C678.4313725490197,12.291666666666668,686.2745098039217,53.583333333333336,705.8823529411766,54C725.4901960784315,54.416666666666664,733.3333333333334,12.833333333333332,752.9411764705883,17C772.5490196078432,21.166666666666668,790.1960784313726,62.125,800,74" transform="matrix(1,0,0,1,0,782)"></path><path d="M10,10C17.720588235294116,21.25,29.534313725490197,75.25,47.05882352941177,64C64.58333333333334,52.75,74.50980392156863,-37.958333333333336,94.11764705882354,-44C113.72549019607844,-50.041666666666664,121.5686274509804,31.25,141.1764705882353,35C160.78431372549022,38.75,168.62745098039215,-32.041666666666664,188.23529411764707,-26C207.843137254902,-19.958333333333336,215.68627450980392,58.166666666666664,235.29411764705884,64C254.90196078431376,69.83333333333333,262.7450980392157,1.5833333333333335,282.3529411764706,2C301.9607843137255,2.4166666666666665,309.80392156862746,74.125,329.4117647058824,66C349.0196078431373,57.875,356.8627450980392,-33.666666666666664,376.47058823529414,-37C396.07843137254906,-40.333333333333336,403.921568627451,45.416666666666664,423.5294117647059,50C443.13725490196083,54.583333333333336,450.98039215686276,-19.166666666666668,470.5882352941177,-15C490.1960784313726,-10.833333333333332,498.0392156862746,70.83333333333333,517.6470588235295,70C537.2549019607844,69.16666666666667,545.0980392156863,-18.375,564.7058823529412,-19C584.3137254901961,-19.625,592.156862745098,59.916666666666664,611.7647058823529,67C631.3725490196078,74.08333333333333,639.2156862745098,17.708333333333332,658.8235294117648,15C678.4313725490197,12.291666666666668,686.2745098039217,53.583333333333336,705.8823529411766,54C725.4901960784315,54.416666666666664,733.3333333333334,12.833333333333332,752.9411764705883,17C772.5490196078432,21.166666666666668,790.1960784313726,62.125,800,74" transform="matrix(1,0,0,1,0,736)"></path><path d="M10,10C17.720588235294116,21.25,29.534313725490197,75.25,47.05882352941177,64C64.58333333333334,52.75,74.50980392156863,-37.958333333333336,94.11764705882354,-44C113.72549019607844,-50.041666666666664,121.5686274509804,31.25,141.1764705882353,35C160.78431372549022,38.75,168.62745098039215,-32.041666666666664,188.23529411764707,-26C207.843137254902,-19.958333333333336,215.68627450980392,58.166666666666664,235.29411764705884,64C254.90196078431376,69.83333333333333,262.7450980392157,1.5833333333333335,282.3529411764706,2C301.9607843137255,2.4166666666666665,309.80392156862746,74.125,329.4117647058824,66C349.0196078431373,57.875,356.8627450980392,-33.666666666666664,376.47058823529414,-37C396.07843137254906,-40.333333333333336,403.921568627451,45.416666666666664,423.5294117647059,50C443.13725490196083,54.583333333333336,450.98039215686276,-19.166666666666668,470.5882352941177,-15C490.1960784313726,-10.833333333333332,498.0392156862746,70.83333333333333,517.6470588235295,70C537.2549019607844,69.16666666666667,545.0980392156863,-18.375,564.7058823529412,-19C584.3137254901961,-19.625,592.156862745098,59.916666666666664,611.7647058823529,67C631.3725490196078,74.08333333333333,639.2156862745098,17.708333333333332,658.8235294117648,15C678.4313725490197,12.291666666666668,686.2745098039217,53.583333333333336,705.8823529411766,54C725.4901960784315,54.416666666666664,733.3333333333334,12.833333333333332,752.9411764705883,17C772.5490196078432,21.166666666666668,790.1960784313726,62.125,800,74" transform="matrix(1,0,0,1,0,690)"></path><path d="M10,10C17.720588235294116,21.25,29.534313725490197,75.25,47.05882352941177,64C64.58333333333334,52.75,74.50980392156863,-37.958333333333336,94.11764705882354,-44C113.72549019607844,-50.041666666666664,121.5686274509804,31.25,141.1764705882353,35C160.78431372549022,38.75,168.62745098039215,-32.041666666666664,188.23529411764707,-26C207.843137254902,-19.958333333333336,215.68627450980392,58.166666666666664,235.29411764705884,64C254.90196078431376,69.83333333333333,262.7450980392157,1.5833333333333335,282.3529411764706,2C301.9607843137255,2.4166666666666665,309.80392156862746,74.125,329.4117647058824,66C349.0196078431373,57.875,356.8627450980392,-33.666666666666664,376.47058823529414,-37C396.07843137254906,-40.333333333333336,403.921568627451,45.416666666666664,423.5294117647059,50C443.13725490196083,54.583333333333336,450.98039215686276,-19.166666666666668,470.5882352941177,-15C490.1960784313726,-10.833333333333332,498.0392156862746,70.83333333333333,517.6470588235295,70C537.2549019607844,69.16666666666667,545.0980392156863,-18.375,564.7058823529412,-19C584.3137254901961,-19.625,592.156862745098,59.916666666666664,611.7647058823529,67C631.3725490196078,74.08333333333333,639.2156862745098,17.708333333333332,658.8235294117648,15C678.4313725490197,12.291666666666668,686.2745098039217,53.583333333333336,705.8823529411766,54C725.4901960784315,54.416666666666664,733.3333333333334,12.833333333333332,752.9411764705883,17C772.5490196078432,21.166666666666668,790.1960784313726,62.125,800,74" transform="matrix(1,0,0,1,0,644)"></path><path d="M10,10C17.720588235294116,21.25,29.534313725490197,75.25,47.05882352941177,64C64.58333333333334,52.75,74.50980392156863,-37.958333333333336,94.11764705882354,-44C113.72549019607844,-50.041666666666664,121.5686274509804,31.25,141.1764705882353,35C160.78431372549022,38.75,168.62745098039215,-32.041666666666664,188.23529411764707,-26C207.843137254902,-19.958333333333336,215.68627450980392,58.166666666666664,235.29411764705884,64C254.90196078431376,69.83333333333333,262.7450980392157,1.5833333333333335,282.3529411764706,2C301.9607843137255,2.4166666666666665,309.80392156862746,74.125,329.4117647058824,66C349.0196078431373,57.875,356.8627450980392,-33.666666666666664,376.47058823529414,-37C396.07843137254906,-40.333333333333336,403.921568627451,45.416666666666664,423.5294117647059,50C443.13725490196083,54.583333333333336,450.98039215686276,-19.166666666666668,470.5882352941177,-15C490.1960784313726,-10.833333333333332,498.0392156862746,70.83333333333333,517.6470588235295,70C537.2549019607844,69.16666666666667,545.0980392156863,-18.375,564.7058823529412,-19C584.3137254901961,-19.625,592.156862745098,59.916666666666664,611.7647058823529,67C631.3725490196078,74.08333333333333,639.2156862745098,17.708333333333332,658.8235294117648,15C678.4313725490197,12.291666666666668,686.2745098039217,53.583333333333336,705.8823529411766,54C725.4901960784315,54.416666666666664,733.3333333333334,12.833333333333332,752.9411764705883,17C772.5490196078432,21.166666666666668,790.1960784313726,62.125,800,74" transform="matrix(1,0,0,1,0,598)"></path><path d="M10,10C17.720588235294116,21.25,29.534313725490197,75.25,47.05882352941177,64C64.58333333333334,52.75,74.50980392156863,-37.958333333333336,94.11764705882354,-44C113.72549019607844,-50.041666666666664,121.5686274509804,31.25,141.1764705882353,35C160.78431372549022,38.75,168.62745098039215,-32.041666666666664,188.23529411764707,-26C207.843137254902,-19.958333333333336,215.68627450980392,58.166666666666664,235.29411764705884,64C254.90196078431376,69.83333333333333,262.7450980392157,1.5833333333333335,282.3529411764706,2C301.9607843137255,2.4166666666666665,309.80392156862746,74.125,329.4117647058824,66C349.0196078431373,57.875,356.8627450980392,-33.666666666666664,376.47058823529414,-37C396.07843137254906,-40.333333333333336,403.921568627451,45.416666666666664,423.5294117647059,50C443.13725490196083,54.583333333333336,450.98039215686276,-19.166666666666668,470.5882352941177,-15C490.1960784313726,-10.833333333333332,498.0392156862746,70.83333333333333,517.6470588235295,70C537.2549019607844,69.16666666666667,545.0980392156863,-18.375,564.7058823529412,-19C584.3137254901961,-19.625,592.156862745098,59.916666666666664,611.7647058823529,67C631.3725490196078,74.08333333333333,639.2156862745098,17.708333333333332,658.8235294117648,15C678.4313725490197,12.291666666666668,686.2745098039217,53.583333333333336,705.8823529411766,54C725.4901960784315,54.416666666666664,733.3333333333334,12.833333333333332,752.9411764705883,17C772.5490196078432,21.166666666666668,790.1960784313726,62.125,800,74" transform="matrix(1,0,0,1,0,552)"></path><path d="M10,10C17.720588235294116,21.25,29.534313725490197,75.25,47.05882352941177,64C64.58333333333334,52.75,74.50980392156863,-37.958333333333336,94.11764705882354,-44C113.72549019607844,-50.041666666666664,121.5686274509804,31.25,141.1764705882353,35C160.78431372549022,38.75,168.62745098039215,-32.041666666666664,188.23529411764707,-26C207.843137254902,-19.958333333333336,215.68627450980392,58.166666666666664,235.29411764705884,64C254.90196078431376,69.83333333333333,262.7450980392157,1.5833333333333335,282.3529411764706,2C301.9607843137255,2.4166666666666665,309.80392156862746,74.125,329.4117647058824,66C349.0196078431373,57.875,356.8627450980392,-33.666666666666664,376.47058823529414,-37C396.07843137254906,-40.333333333333336,403.921568627451,45.416666666666664,423.5294117647059,50C443.13725490196083,54.583333333333336,450.98039215686276,-19.166666666666668,470.5882352941177,-15C490.1960784313726,-10.833333333333332,498.0392156862746,70.83333333333333,517.6470588235295,70C537.2549019607844,69.16666666666667,545.0980392156863,-18.375,564.7058823529412,-19C584.3137254901961,-19.625,592.156862745098,59.916666666666664,611.7647058823529,67C631.3725490196078,74.08333333333333,639.2156862745098,17.708333333333332,658.8235294117648,15C678.4313725490197,12.291666666666668,686.2745098039217,53.583333333333336,705.8823529411766,54C725.4901960784315,54.416666666666664,733.3333333333334,12.833333333333332,752.9411764705883,17C772.5490196078432,21.166666666666668,790.1960784313726,62.125,800,74" transform="matrix(1,0,0,1,0,506)"></path><path d="M10,10C17.720588235294116,21.25,29.534313725490197,75.25,47.05882352941177,64C64.58333333333334,52.75,74.50980392156863,-37.958333333333336,94.11764705882354,-44C113.72549019607844,-50.041666666666664,121.5686274509804,31.25,141.1764705882353,35C160.78431372549022,38.75,168.62745098039215,-32.041666666666664,188.23529411764707,-26C207.843137254902,-19.958333333333336,215.68627450980392,58.166666666666664,235.29411764705884,64C254.90196078431376,69.83333333333333,262.7450980392157,1.5833333333333335,282.3529411764706,2C301.9607843137255,2.4166666666666665,309.80392156862746,74.125,329.4117647058824,66C349.0196078431373,57.875,356.8627450980392,-33.666666666666664,376.47058823529414,-37C396.07843137254906,-40.333333333333336,403.921568627451,45.416666666666664,423.5294117647059,50C443.13725490196083,54.583333333333336,450.98039215686276,-19.166666666666668,470.5882352941177,-15C490.1960784313726,-10.833333333333332,498.0392156862746,70.83333333333333,517.6470588235295,70C537.2549019607844,69.16666666666667,545.0980392156863,-18.375,564.7058823529412,-19C584.3137254901961,-19.625,592.156862745098,59.916666666666664,611.7647058823529,67C631.3725490196078,74.08333333333333,639.2156862745098,17.708333333333332,658.8235294117648,15C678.4313725490197,12.291666666666668,686.2745098039217,53.583333333333336,705.8823529411766,54C725.4901960784315,54.416666666666664,733.3333333333334,12.833333333333332,752.9411764705883,17C772.5490196078432,21.166666666666668,790.1960784313726,62.125,800,74" transform="matrix(1,0,0,1,0,460)"></path><path d="M10,10C17.720588235294116,21.25,29.534313725490197,75.25,47.05882352941177,64C64.58333333333334,52.75,74.50980392156863,-37.958333333333336,94.11764705882354,-44C113.72549019607844,-50.041666666666664,121.5686274509804,31.25,141.1764705882353,35C160.78431372549022,38.75,168.62745098039215,-32.041666666666664,188.23529411764707,-26C207.843137254902,-19.958333333333336,215.68627450980392,58.166666666666664,235.29411764705884,64C254.90196078431376,69.83333333333333,262.7450980392157,1.5833333333333335,282.3529411764706,2C301.9607843137255,2.4166666666666665,309.80392156862746,74.125,329.4117647058824,66C349.0196078431373,57.875,356.8627450980392,-33.666666666666664,376.47058823529414,-37C396.07843137254906,-40.333333333333336,403.921568627451,45.416666666666664,423.5294117647059,50C443.13725490196083,54.583333333333336,450.98039215686276,-19.166666666666668,470.5882352941177,-15C490.1960784313726,-10.833333333333332,498.0392156862746,70.83333333333333,517.6470588235295,70C537.2549019607844,69.16666666666667,545.0980392156863,-18.375,564.7058823529412,-19C584.3137254901961,-19.625,592.156862745098,59.916666666666664,611.7647058823529,67C631.3725490196078,74.08333333333333,639.2156862745098,17.708333333333332,658.8235294117648,15C678.4313725490197,12.291666666666668,686.2745098039217,53.583333333333336,705.8823529411766,54C725.4901960784315,54.416666666666664,733.3333333333334,12.833333333333332,752.9411764705883,17C772.5490196078432,21.166666666666668,790.1960784313726,62.125,800,74" transform="matrix(1,0,0,1,0,414)"></path><path d="M10,10C17.720588235294116,21.25,29.534313725490197,75.25,47.05882352941177,64C64.58333333333334,52.75,74.50980392156863,-37.958333333333336,94.11764705882354,-44C113.72549019607844,-50.041666666666664,121.5686274509804,31.25,141.1764705882353,35C160.78431372549022,38.75,168.62745098039215,-32.041666666666664,188.23529411764707,-26C207.843137254902,-19.958333333333336,215.68627450980392,58.166666666666664,235.29411764705884,64C254.90196078431376,69.83333333333333,262.7450980392157,1.5833333333333335,282.3529411764706,2C301.9607843137255,2.4166666666666665,309.80392156862746,74.125,329.4117647058824,66C349.0196078431373,57.875,356.8627450980392,-33.666666666666664,376.47058823529414,-37C396.07843137254906,-40.333333333333336,403.921568627451,45.416666666666664,423.5294117647059,50C443.13725490196083,54.583333333333336,450.98039215686276,-19.166666666666668,470.5882352941177,-15C490.1960784313726,-10.833333333333332,498.0392156862746,70.83333333333333,517.6470588235295,70C537.2549019607844,69.16666666666667,545.0980392156863,-18.375,564.7058823529412,-19C584.3137254901961,-19.625,592.156862745098,59.916666666666664,611.7647058823529,67C631.3725490196078,74.08333333333333,639.2156862745098,17.708333333333332,658.8235294117648,15C678.4313725490197,12.291666666666668,686.2745098039217,53.583333333333336,705.8823529411766,54C725.4901960784315,54.416666666666664,733.3333333333334,12.833333333333332,752.9411764705883,17C772.5490196078432,21.166666666666668,790.1960784313726,62.125,800,74" transform="matrix(1,0,0,1,0,368)"></path><path d="M10,10C17.720588235294116,21.25,29.534313725490197,75.25,47.05882352941177,64C64.58333333333334,52.75,74.50980392156863,-37.958333333333336,94.11764705882354,-44C113.72549019607844,-50.041666666666664,121.5686274509804,31.25,141.1764705882353,35C160.78431372549022,38.75,168.62745098039215,-32.041666666666664,188.23529411764707,-26C207.843137254902,-19.958333333333336,215.68627450980392,58.166666666666664,235.29411764705884,64C254.90196078431376,69.83333333333333,262.7450980392157,1.5833333333333335,282.3529411764706,2C301.9607843137255,2.4166666666666665,309.80392156862746,74.125,329.4117647058824,66C349.0196078431373,57.875,356.8627450980392,-33.666666666666664,376.47058823529414,-37C396.07843137254906,-40.333333333333336,403.921568627451,45.416666666666664,423.5294117647059,50C443.13725490196083,54.583333333333336,450.98039215686276,-19.166666666666668,470.5882352941177,-15C490.1960784313726,-10.833333333333332,498.0392156862746,70.83333333333333,517.6470588235295,70C537.2549019607844,69.16666666666667,545.0980392156863,-18.375,564.7058823529412,-19C584.3137254901961,-19.625,592.156862745098,59.916666666666664,611.7647058823529,67C631.3725490196078,74.08333333333333,639.2156862745098,17.708333333333332,658.8235294117648,15C678.4313725490197,12.291666666666668,686.2745098039217,53.583333333333336,705.8823529411766,54C725.4901960784315,54.416666666666664,733.3333333333334,12.833333333333332,752.9411764705883,17C772.5490196078432,21.166666666666668,790.1960784313726,62.125,800,74" transform="matrix(1,0,0,1,0,322)"></path><path d="M10,10C17.720588235294116,21.25,29.534313725490197,75.25,47.05882352941177,64C64.58333333333334,52.75,74.50980392156863,-37.958333333333336,94.11764705882354,-44C113.72549019607844,-50.041666666666664,121.5686274509804,31.25,141.1764705882353,35C160.78431372549022,38.75,168.62745098039215,-32.041666666666664,188.23529411764707,-26C207.843137254902,-19.958333333333336,215.68627450980392,58.166666666666664,235.29411764705884,64C254.90196078431376,69.83333333333333,262.7450980392157,1.5833333333333335,282.3529411764706,2C301.9607843137255,2.4166666666666665,309.80392156862746,74.125,329.4117647058824,66C349.0196078431373,57.875,356.8627450980392,-33.666666666666664,376.47058823529414,-37C396.07843137254906,-40.333333333333336,403.921568627451,45.416666666666664,423.5294117647059,50C443.13725490196083,54.583333333333336,450.98039215686276,-19.166666666666668,470.5882352941177,-15C490.1960784313726,-10.833333333333332,498.0392156862746,70.83333333333333,517.6470588235295,70C537.2549019607844,69.16666666666667,545.0980392156863,-18.375,564.7058823529412,-19C584.3137254901961,-19.625,592.156862745098,59.916666666666664,611.7647058823529,67C631.3725490196078,74.08333333333333,639.2156862745098,17.708333333333332,658.8235294117648,15C678.4313725490197,12.291666666666668,686.2745098039217,53.583333333333336,705.8823529411766,54C725.4901960784315,54.416666666666664,733.3333333333334,12.833333333333332,752.9411764705883,17C772.5490196078432,21.166666666666668,790.1960784313726,62.125,800,74" transform="matrix(1,0,0,1,0,276)"></path><path d="M10,10C17.720588235294116,21.25,29.534313725490197,75.25,47.05882352941177,64C64.58333333333334,52.75,74.50980392156863,-37.958333333333336,94.11764705882354,-44C113.72549019607844,-50.041666666666664,121.5686274509804,31.25,141.1764705882353,35C160.78431372549022,38.75,168.62745098039215,-32.041666666666664,188.23529411764707,-26C207.843137254902,-19.958333333333336,215.68627450980392,58.166666666666664,235.29411764705884,64C254.90196078431376,69.83333333333333,262.7450980392157,1.5833333333333335,282.3529411764706,2C301.9607843137255,2.4166666666666665,309.80392156862746,74.125,329.4117647058824,66C349.0196078431373,57.875,356.8627450980392,-33.666666666666664,376.47058823529414,-37C396.07843137254906,-40.333333333333336,403.921568627451,45.416666666666664,423.5294117647059,50C443.13725490196083,54.583333333333336,450.98039215686276,-19.166666666666668,470.5882352941177,-15C490.1960784313726,-10.833333333333332,498.0392156862746,70.83333333333333,517.6470588235295,70C537.2549019607844,69.16666666666667,545.0980392156863,-18.375,564.7058823529412,-19C584.3137254901961,-19.625,592.156862745098,59.916666666666664,611.7647058823529,67C631.3725490196078,74.08333333333333,639.2156862745098,17.708333333333332,658.8235294117648,15C678.4313725490197,12.291666666666668,686.2745098039217,53.583333333333336,705.8823529411766,54C725.4901960784315,54.416666666666664,733.3333333333334,12.833333333333332,752.9411764705883,17C772.5490196078432,21.166666666666668,790.1960784313726,62.125,800,74" transform="matrix(1,0,0,1,0,230)"></path><path d="M10,10C17.720588235294116,21.25,29.534313725490197,75.25,47.05882352941177,64C64.58333333333334,52.75,74.50980392156863,-37.958333333333336,94.11764705882354,-44C113.72549019607844,-50.041666666666664,121.5686274509804,31.25,141.1764705882353,35C160.78431372549022,38.75,168.62745098039215,-32.041666666666664,188.23529411764707,-26C207.843137254902,-19.958333333333336,215.68627450980392,58.166666666666664,235.29411764705884,64C254.90196078431376,69.83333333333333,262.7450980392157,1.5833333333333335,282.3529411764706,2C301.9607843137255,2.4166666666666665,309.80392156862746,74.125,329.4117647058824,66C349.0196078431373,57.875,356.8627450980392,-33.666666666666664,376.47058823529414,-37C396.07843137254906,-40.333333333333336,403.921568627451,45.416666666666664,423.5294117647059,50C443.13725490196083,54.583333333333336,450.98039215686276,-19.166666666666668,470.5882352941177,-15C490.1960784313726,-10.833333333333332,498.0392156862746,70.83333333333333,517.6470588235295,70C537.2549019607844,69.16666666666667,545.0980392156863,-18.375,564.7058823529412,-19C584.3137254901961,-19.625,592.156862745098,59.916666666666664,611.7647058823529,67C631.3725490196078,74.08333333333333,639.2156862745098,17.708333333333332,658.8235294117648,15C678.4313725490197,12.291666666666668,686.2745098039217,53.583333333333336,705.8823529411766,54C725.4901960784315,54.416666666666664,733.3333333333334,12.833333333333332,752.9411764705883,17C772.5490196078432,21.166666666666668,790.1960784313726,62.125,800,74" transform="matrix(1,0,0,1,0,184)"></path><path d="M10,10C17.720588235294116,21.25,29.534313725490197,75.25,47.05882352941177,64C64.58333333333334,52.75,74.50980392156863,-37.958333333333336,94.11764705882354,-44C113.72549019607844,-50.041666666666664,121.5686274509804,31.25,141.1764705882353,35C160.78431372549022,38.75,168.62745098039215,-32.041666666666664,188.23529411764707,-26C207.843137254902,-19.958333333333336,215.68627450980392,58.166666666666664,235.29411764705884,64C254.90196078431376,69.83333333333333,262.7450980392157,1.5833333333333335,282.3529411764706,2C301.9607843137255,2.4166666666666665,309.80392156862746,74.125,329.4117647058824,66C349.0196078431373,57.875,356.8627450980392,-33.666666666666664,376.47058823529414,-37C396.07843137254906,-40.333333333333336,403.921568627451,45.416666666666664,423.5294117647059,50C443.13725490196083,54.583333333333336,450.98039215686276,-19.166666666666668,470.5882352941177,-15C490.1960784313726,-10.833333333333332,498.0392156862746,70.83333333333333,517.6470588235295,70C537.2549019607844,69.16666666666667,545.0980392156863,-18.375,564.7058823529412,-19C584.3137254901961,-19.625,592.156862745098,59.916666666666664,611.7647058823529,67C631.3725490196078,74.08333333333333,639.2156862745098,17.708333333333332,658.8235294117648,15C678.4313725490197,12.291666666666668,686.2745098039217,53.583333333333336,705.8823529411766,54C725.4901960784315,54.416666666666664,733.3333333333334,12.833333333333332,752.9411764705883,17C772.5490196078432,21.166666666666668,790.1960784313726,62.125,800,74" transform="matrix(1,0,0,1,0,138)"></path><path d="M10,10C17.720588235294116,21.25,29.534313725490197,75.25,47.05882352941177,64C64.58333333333334,52.75,74.50980392156863,-37.958333333333336,94.11764705882354,-44C113.72549019607844,-50.041666666666664,121.5686274509804,31.25,141.1764705882353,35C160.78431372549022,38.75,168.62745098039215,-32.041666666666664,188.23529411764707,-26C207.843137254902,-19.958333333333336,215.68627450980392,58.166666666666664,235.29411764705884,64C254.90196078431376,69.83333333333333,262.7450980392157,1.5833333333333335,282.3529411764706,2C301.9607843137255,2.4166666666666665,309.80392156862746,74.125,329.4117647058824,66C349.0196078431373,57.875,356.8627450980392,-33.666666666666664,376.47058823529414,-37C396.07843137254906,-40.333333333333336,403.921568627451,45.416666666666664,423.5294117647059,50C443.13725490196083,54.583333333333336,450.98039215686276,-19.166666666666668,470.5882352941177,-15C490.1960784313726,-10.833333333333332,498.0392156862746,70.83333333333333,517.6470588235295,70C537.2549019607844,69.16666666666667,545.0980392156863,-18.375,564.7058823529412,-19C584.3137254901961,-19.625,592.156862745098,59.916666666666664,611.7647058823529,67C631.3725490196078,74.08333333333333,639.2156862745098,17.708333333333332,658.8235294117648,15C678.4313725490197,12.291666666666668,686.2745098039217,53.583333333333336,705.8823529411766,54C725.4901960784315,54.416666666666664,733.3333333333334,12.833333333333332,752.9411764705883,17C772.5490196078432,21.166666666666668,790.1960784313726,62.125,800,74" transform="matrix(1,0,0,1,0,92)"></path><path d="M10,10C17.720588235294116,21.25,29.534313725490197,75.25,47.05882352941177,64C64.58333333333334,52.75,74.50980392156863,-37.958333333333336,94.11764705882354,-44C113.72549019607844,-50.041666666666664,121.5686274509804,31.25,141.1764705882353,35C160.78431372549022,38.75,168.62745098039215,-32.041666666666664,188.23529411764707,-26C207.843137254902,-19.958333333333336,215.68627450980392,58.166666666666664,235.29411764705884,64C254.90196078431376,69.83333333333333,262.7450980392157,1.5833333333333335,282.3529411764706,2C301.9607843137255,2.4166666666666665,309.80392156862746,74.125,329.4117647058824,66C349.0196078431373,57.875,356.8627450980392,-33.666666666666664,376.47058823529414,-37C396.07843137254906,-40.333333333333336,403.921568627451,45.416666666666664,423.5294117647059,50C443.13725490196083,54.583333333333336,450.98039215686276,-19.166666666666668,470.5882352941177,-15C490.1960784313726,-10.833333333333332,498.0392156862746,70.83333333333333,517.6470588235295,70C537.2549019607844,69.16666666666667,545.0980392156863,-18.375,564.7058823529412,-19C584.3137254901961,-19.625,592.156862745098,59.916666666666664,611.7647058823529,67C631.3725490196078,74.08333333333333,639.2156862745098,17.708333333333332,658.8235294117648,15C678.4313725490197,12.291666666666668,686.2745098039217,53.583333333333336,705.8823529411766,54C725.4901960784315,54.416666666666664,733.3333333333334,12.833333333333332,752.9411764705883,17C772.5490196078432,21.166666666666668,790.1960784313726,62.125,800,74" transform="matrix(1,0,0,1,0,46)"></path></g></svg>