<svg xmlns="http://www.w3.org/2000/svg" version="1.1" xmlns:xlink="http://www.w3.org/1999/xlink" xmlns:svgjs="http://svgjs.dev/svgjs" viewBox="0 0 800 800" opacity="0.21"><defs><linearGradient x1="50%" y1="0%" x2="50%" y2="100%" id="uundulate-grad"><stop stop-color="hsl(206, 75%, 49%)" stop-opacity="1" offset="45%"></stop><stop stop-color="hsl(331, 90%, 56%)" stop-opacity="1" offset="100%"></stop></linearGradient></defs><g stroke-width="2" stroke="url(#uundulate-grad)" fill="none"><path d="M578.1422266304205 322.3828887675487C619.3534257832634 440.01828933081197 717.2764252616711 625.3547387229607 654.5907468451242 733.0903230150225C591.9050684285774 840.8259073070847 382.19095155642196 888.205091392553 277.25097023099624 839.5136933694462C172.31098890557064 790.8222953463396 182.00713745104326 610.7910039980211 150.87883648308036 499.3716125041108C119.75053551511746 387.95222101020045 123.58061568589261 420.3083607710662 127.83512558477366 304.7006141986775C132.08963548365472 189.0928676262888 102.77092872131277 -27.158026483496656 171.3004839977093 -55.54557104335487C239.8300392741059 -83.93311560321314 372.0182945296626 89.70530451742059 456.7769909114776 168.4404003113591C541.5356872932925 247.1754961052975 536.9310274775776 204.74748820428545 578.1422266304205 322.3828887675487C619.3534257832634 440.01828933081197 717.2764252616711 625.3547387229607 654.5907468451242 733.0903230150225 "></path><path d="M570.0448540798368 325.9109795058313C609.3828169075505 438.199316407128 702.8547709551215 615.1113817359972 643.0184415575084 717.9498940147837C583.1821121598955 820.78840629357 383.0004551455654 866.0139911024262 282.83047297129553 819.5358384440062C182.66049079702555 773.0576857855863 191.91590531770396 601.2096349531004 162.2025271210121 494.85476125436776C132.4891489243202 388.49988755563504 136.1451345418783 419.38529369100706 140.20625762717384 309.03244469009064C144.26738071246945 198.6795956891741 116.28134243932482 -7.741712324712012 181.69591793043065 -34.83891395003121C247.11049342153643 -61.93611557535047 373.29019162002237 103.80964908525448 454.19621998448224 178.96587688855925C535.1022483489419 254.12210469186425 530.7068912521231 213.62264260453458 570.0448540798368 325.9109795058313C609.3828169075505 438.199316407128 702.8547709551215 615.1113817359972 643.0184415575084 717.9498940147837 "></path><path d="M561.947466270464 329.4390092089577C599.4121927730484 436.38028244828774 688.4331013897827 604.8679637138775 631.4461210111037 702.8094039793887C574.4591406324246 800.7508442448993 383.8099434759198 843.8228297771434 288.4099604528056 799.55792248341C193.0099774296914 755.2930151896767 201.8246579255756 591.6282048730234 173.52620250015474 490.3378489694685C145.22774707473394 389.0474930659137 148.70963813907497 418.4621655757918 152.577374410785 313.3642141463474C156.44511068249506 208.26626271690316 129.7917408985478 11.674540798916382 192.09133660436288 -14.132317891863806C254.39093231017796 -39.93917658264405 374.56207345159316 117.91393261793212 451.6154337986977 189.49129243060338C528.6687941458022 261.06865224327464 524.4827397678796 222.49773596962746 561.947466270464 329.4390092089577C599.4121927730484 436.38028244828774 688.4331013897827 604.8679637138775 631.4461210111037 702.8094039793887 "></path><path d="M553.8500937198803 332.9670999472402C589.4415838973355 434.56130952460376 674.011447083233 594.6246067269142 619.873815723488 687.6689749791494C565.736184363743 780.7133432313849 384.61944706506324 821.6317294870166 293.98946319310477 779.5800675579699C203.35947932114624 737.5284056289231 211.73342579223623 582.0468358281026 184.8498931380865 485.8209977197256C157.96636048393668 389.59515961134844 161.27415699506065 417.53909849573256 164.9485064531852 317.69604463776045C168.62285591130978 217.85299077978846 143.3021546165599 31.090854957701026 202.48677053708417 6.57433920145985C261.6713864576085 -17.942176554781383 375.833970541953 132.0182771857659 449.03466287170227 200.01676900780365C522.2353552014515 268.0152608298414 518.258603542425 231.37289036987647 553.8500937198803 332.9670999472402C589.4415838973355 434.56130952460376 674.011447083233 594.6246067269142 619.873815723488 687.6689749791494 "></path><path d="M545.7527211692966 336.4951296503665C579.4709750216225 432.74227556576375 659.5897927766833 584.3811887047946 608.3015104358722 672.5284849437544C557.0132280950611 760.6757811827142 385.4289506542068 799.4405681617336 299.56896593340394 759.6021515973734C213.70898121260115 719.7637350330135 221.64219365889693 572.4654057480258 196.17358377601818 481.30408543482633C170.70497389313942 390.142765121627 173.83867585104633 416.6159703805173 177.31963849558542 322.02781409401746C180.80060114012446 227.4396578075175 156.81256833457195 50.50710808132948 212.88220446980552 27.280935259627256C268.951840605039 4.054762437925035 377.10586763231277 146.12256071844354 446.4538919447068 210.54218454984766C515.8019162571009 274.9618083812519 512.0344673169704 240.24798373496935 545.7527211692966 336.4951296503665C579.4709750216225 432.74227556576375 659.5897927766833 584.3811887047946 608.3015104358722 672.5284849437544 "></path><path d="M537.6553486187128 340.0232203886492C569.5003661459095 430.92330264207976 645.1681384701337 574.1378317178311 596.7292051482566 657.3880559435154C548.2902718263792 740.6382801691996 386.23845424335025 777.2494678716071 305.1484686737031 739.6242966719337C224.05848310405605 701.9991254722603 231.55096152555757 562.884036703105 207.49727441394987 476.78723418508343C183.44358730234217 390.69043166706183 186.40319470703207 415.69290330045806 189.6907705379856 326.3596445854305C192.97834636893919 237.0263858704028 170.322982052584 69.92342224011412 223.2776384025268 47.98759235295091C276.2322947524696 26.051762465787704 378.3777647226725 160.22690528627743 443.87312101771136 221.06766112704804C509.3684773127502 281.90841696781854 505.810331091516 249.12313813521848 537.6553486187128 340.0232203886492C569.5003661459095 430.92330264207976 645.1681384701337 574.1378317178311 596.7292051482566 657.3880559435154 "></path><path d="M529.55796080934 343.5512500917755C559.5297420114075 429.1042686832395 630.7464689047949 563.8944136957114 585.1568846018517 642.2475659081201C539.5673002989085 720.6007181205289 387.04794257370463 755.0583065463238 310.72795615521323 719.6463807113373C234.40796973672184 684.2344548763506 241.4597141334292 553.3026066230282 218.82094979309255 472.2703219001842C196.1821854527559 391.2380371773404 198.9676983042287 414.7697751852427 202.06188732159677 330.69141404168727C205.1560763389648 246.61305289813185 183.83338051180704 89.33967536374251 233.67305707645903 68.69418841111832C283.5127336411111 48.04870145849418 379.6496465542433 174.33118881895507 441.29233483192684 231.59307666909206C502.9350231096105 288.85496451922904 499.58617960727236 257.99823150031125 529.55796080934 343.5512500917755C559.5297420114075 429.1042686832395 630.7464689047949 563.8944136957114 585.1568846018517 642.2475659081201 "></path><path d="M521.4606035175452 347.0792492773237C549.5591483944836 427.2852042068213 616.3248298570343 553.6509651560136 573.584594573025 627.1070453551469C530.8443592890158 700.56312555428 387.85746142163714 732.867114703463 316.3074741543015 699.6684342331629C244.7574868869658 666.4697537628629 251.36849725887896 543.721146025373 230.1446556898133 467.7533790977069C208.9208141207477 391.78561217004074 211.5322324190035 413.8466165524493 214.433034622786 335.02315298036604C217.3338368265686 256.1996894082828 197.34380948860814 108.75589796979278 244.06850626796944 89.4007539517076C290.79320304733073 70.04560993362247 380.9215589033921 188.43544183405453 438.71157916372044 242.11846169355795C496.5015994240489 295.8014815530614 493.36205864060685 266.873294347826 521.4606035175452 347.0792492773237C549.5591483944836 427.2852042068213 616.3248298570343 553.6509651560136 573.584594573025 627.1070453551469 "></path><path d="M513.3632309669615 350.60734001560627C539.5885395187706 425.4662312831374 601.9031755504845 543.4076081690503 562.0122892854092 611.966616354908C522.121403020334 680.5256245407655 388.6669650107806 710.6760144133364 321.88697689460065 679.6905793077229C255.10698877842066 648.7051442021095 261.2772651255396 534.1397769804523 241.46834632774505 463.236527847964C221.65942752995045 392.33327871547556 224.09675127498917 412.92354947239016 226.80416666518624 339.3549834717792C229.51158205538326 265.7864174711682 210.8542232066202 128.17221212857743 254.46394020069073 110.10741104503126C298.07365719476127 92.04260996148514 382.19345599375197 202.53978640188836 436.1308082367251 252.64393827075833C490.06816047969824 302.7480901396282 487.1379224151524 275.74844874807513 513.3632309669615 350.60734001560627C539.5885395187706 425.4662312831374 601.9031755504845 543.4076081690503 562.0122892854092 611.966616354908 "></path><path d="M505.26584315758873 354.1353697187326C529.6179153842686 423.64719732429717 587.4815059851459 533.1641901469305 550.4399687390045 596.8261263195127C513.3984314928632 660.4880624920947 389.47645334113497 688.4848530880533 327.46646437611076 659.7126633471265C265.4564754110865 630.9404736061999 271.18601773341123 524.5583469003753 252.79202170688768 458.71961556306474C234.39802568036419 392.880884225754 236.66125487218585 412.0004213571748 239.17528344879736 343.68675292803596C241.68931202540892 275.3730844988972 224.36462166584317 147.58846525220582 264.85935887462296 130.81400710319866C305.35409608340274 114.03954895419156 383.46533782532265 216.644069934566 433.5500220509406 263.16935381280234C483.6347062765585 309.6946376910387 480.91377093090887 284.62354211316796 505.26584315758873 354.1353697187326C529.6179153842686 423.64719732429717 587.4815059851459 533.1641901469305 550.4399687390045 596.8261263195127 "></path><path d="M497.1684858657941 357.66342993943704C519.6473217673447 421.82819388303517 573.0598669373853 522.920802642389 538.8676787101779 581.6856668016956C504.6754904829704 640.4505309610022 390.2859721890675 666.2937222803486 333.045982375199 639.7347779041085C275.80599256133047 613.1758335278685 281.094800858861 514.9769473378765 264.1157276036085 454.2027337957436C247.136654348356 393.4285202536107 249.2257889869606 411.07732375953753 251.54643074998665 348.018552901871C253.86707251301266 284.9597820442044 237.87505064264434 167.00474889341234 275.25480806613336 151.5206336789442C312.6345654896224 136.0365184644761 384.7372501744715 230.74838398482177 430.9692663827342 273.6947998724245C477.2012825909969 316.6412157600273 474.68964996424336 293.49866599583896 497.1684858657941 357.66342993943704C519.6473217673447 421.82819388303517 573.0598669373853 522.920802642389 538.8676787101779 581.6856668016956 "></path><path d="M489.07111331521025 361.1914443837743C509.6767128916317 420.009144665406 558.6382126308356 512.6773693614804 527.2953734225621 566.5451615075112C495.9525342142887 620.4129536535423 391.095475778211 644.1025456962765 338.6254851154981 619.7568466847231C286.1554944527853 595.4111476731698 291.00356872552163 505.39550199901055 275.4394182415402 449.6858062520554C259.87526775755873 393.9761105051002 261.7903078429463 410.1541803855331 263.91756279238683 352.3503070993388C266.0448177418274 294.5464338131444 251.38546436065639 186.42098675825167 285.65024199885465 172.22721447832254C319.9150196370529 158.03344219839346 386.0091472648313 244.8526522587103 428.38849545573885 284.22020015567955C470.76784364664627 323.58774805264875 468.4655137387888 302.3737441021427 489.07111331521025 361.1914443837743C509.6767128916317 420.009144665406 558.6382126308356 512.6773693614804 527.2953734225621 566.5451615075112 "></path><path d="M480.97374076462654 364.71950460447886C499.70610401591875 418.1901412241439 544.2165583242859 502.4339818569388 515.7230681349464 551.4047019896943C487.2295779456068 600.3754221224497 391.90497936735443 621.9114148885717 344.2049878557973 599.778961241705C296.5049963442402 577.6465075948383 300.9123365921823 495.8141024365117 286.76310887947193 445.16892448473425C272.6138811667615 394.5237465329569 274.354826698932 409.23108278789596 276.288694834787 356.6821070731737C278.22256297064206 304.1331313584516 264.89587807866843 205.8372703994582 296.04567593157594 192.93384105406807C327.1954737844835 180.030411708678 387.2810443551911 258.95696630896606 425.8077245287434 294.7456462153017C464.3344047022956 330.5343261216373 462.2413775133343 311.2488679848137 480.97374076462654 364.71950460447886C499.70610401591875 418.1901412241439 544.2165583242859 502.4339818569388 515.7230681349464 551.4047019896943 "></path><path d="M472.87635295525376 368.24756482518325C489.7354798814167 416.3711377828819 529.7948887589471 492.1905943523973 504.15074758854155 536.2642424718772C478.506606418136 580.3378905913571 392.71446769770887 599.7202840808668 349.7844753373074 579.8010757986867C306.85448297690607 559.8818675165068 310.8210892000539 486.23270287401283 298.08678425861456 440.6520427174132C285.3524793171752 395.0713825608135 286.91933029612863 408.3079851902587 288.6598116183982 361.01390704700873C290.4002929406677 313.71982890375875 278.4062765378915 225.2535540406647 306.4410946055082 213.6404676298136C334.475912673125 202.02738121896255 388.55292618676185 273.06128035922177 423.2269383429589 305.27109227492383C457.9009504991559 337.48090419062595 456.0172260290907 320.1239918674847 472.87635295525376 368.24756482518325C489.7354798814167 416.3711377828819 529.7948887589471 492.1905943523973 504.15074758854155 536.2642424718772 "></path><path d="M464.77898040466994 371.77562504588775C479.76487100570375 414.55213434161976 515.3732344523975 481.9472068478557 492.5784423009259 521.1237829540601C469.7836501494543 560.3003590602644 393.5239712868523 577.5291532731619 355.3639780776066 559.8231903556687C317.2039848683609 542.1172274381753 320.7298570667146 476.6513033115141 309.41047489654625 436.1351609500921C298.09109272637795 395.6190185886702 299.4838491521144 407.38488759262134 301.03094366079836 365.34570702084363C302.5780381694824 323.3065264490659 291.9166902559035 244.66983768187123 316.8365285382295 234.3470942055592C341.75636682055557 224.0243507292471 389.82482327712165 287.16559440947754 420.6461674159634 315.796538334546C451.46751155480524 344.4274822596145 449.7930898036361 328.9991157501556 464.77898040466994 371.77562504588775C479.76487100570375 414.55213434161976 515.3732344523975 481.9472068478557 492.5784423009259 521.1237829540601 "></path><path d="M456.6816078540862 375.30367000780313C469.7942621299908 412.7331156415687 500.95158014584774 471.70380408452513 481.0061370133101 505.983308177454C461.06069388077253 540.2628122703827 394.33347487599576 555.3380072066682 360.94348081790577 539.8452896538615C327.5534867598158 524.3525721010548 330.6386249333753 467.06988849022616 320.734165534478 431.618263923982C310.8297061355807 396.1666393577378 312.04836800810006 406.4617747361951 313.4020757031986 369.6774917358896C314.7557833982971 332.8932087355841 305.42710397391556 264.0861060642887 327.23196247095086 255.05370552251566C349.0368209679861 246.02130498074257 391.09672036748145 301.2698932009442 418.065396488968 326.32196913537916C445.0340726104546 351.3740450698141 443.56895357818166 337.87422437403757 456.6816078540862 375.30367000780313C469.7942621299908 412.7331156415687 500.95158014584774 471.70380408452513 481.0061370133101 505.983308177454 "></path><path d="M448.5842353035025 378.8317149697185C459.8236532542778 410.9140969415176 486.52992583929813 461.46040132119447 469.4338317256944 490.8428334008478C452.3377376120907 520.2252654805011 395.1429784651392 533.1468611401742 366.52298355820494 519.8673889520542C337.9029886512707 506.58791676393423 340.54739280003594 457.48847366893824 332.0578561724097 427.1013668978718C323.56831954478344 396.71426012680536 324.61288686408574 405.53866187976877 325.77320774559877 374.0092764509355C326.9335286271118 342.4798910221022 318.9375176919276 283.5023744467062 337.62739640367215 275.7603168394721C356.3172751154167 268.01825923223805 392.3686174578412 315.3741919924109 415.48462556197256 336.84739993621224C438.60063366610393 358.32060788001365 437.34481735272715 346.7493329979195 448.5842353035025 378.8317149697185C459.8236532542778 410.9140969415176 486.52992583929813 461.46040132119447 469.4338317256944 490.8428334008478 "></path><path d="M440.48686275291874 382.35975993163396C449.85304437856485 409.09507824146647 472.1082715327484 451.2169985578639 457.86152643807867 475.7023586242417C443.6147813434089 500.18771869061936 395.9524820542827 510.9557150736804 372.1024862985041 499.88948825024704C348.2524905427256 488.8232614268137 350.45616066669663 447.9070588476504 343.38154681034143 422.58446987176166C336.30693295398623 397.261880895873 337.1774057200715 404.6155490233425 338.144339787999 378.3410611659814C339.1112738559265 352.0665733086203 332.4479314099397 302.91864282912366 348.02283033639344 296.4669281564286C363.5977292628472 290.01521348373353 393.64051454820105 329.47849078387753 412.90385463497717 347.3728307370454C432.1671947217533 365.2671706902132 431.12068112727263 355.6244416218014 440.48686275291874 382.35975993163396C449.85304437856485 409.09507824146647 472.1082715327484 451.2169985578639 457.86152643807867 475.7023586242417 "></path><path d="M432.38949020233497 385.88780489354934C439.8824355028519 407.27605954141535 457.68661722619873 440.9735957945333 446.28922115046294 460.5618838476355C434.89182507472714 480.1501719007377 396.76198564342616 488.7645690071864 377.6819890388033 479.9115875484398C358.6019924341805 471.0586060896931 360.36492853335733 438.3256440263625 354.7052374482731 418.0675728456515C349.045546363189 397.80950166494057 349.74192457605716 403.69243616691614 350.5154718303992 382.6728458810273C351.2890190847412 361.65325559513843 345.95834512795176 322.3349112115411 358.4182642691148 317.17353947338506C370.87818341027776 312.012167735229 394.9124116385608 343.58278957534424 410.3230837079817 357.8982615378785C425.7337557774026 372.21373350041273 424.89654490181806 364.4995502456833 432.38949020233497 385.88780489354934C439.8824355028519 407.27605954141535 457.68661722619873 440.9735957945333 446.28922115046294 460.5618838476355 "></path><path d="M424.29211765175125 389.4158651142538C429.9118266271389 405.4570561001533 443.26496291964907 430.73020828999177 434.7169158628472 445.4214243298184C426.16886880604534 460.1126403696451 397.5714892325696 466.57343819948164 383.26149177910247 459.9337021054216C368.95149432563534 453.29396601136165 370.27369640001797 428.74424446386365 366.02892808620487 413.55069107833043C361.7841597723917 398.3571376927972 362.3064434320429 402.76933856927894 362.8866038727994 387.00464585486225C363.4667643135559 371.2399531404456 359.4687588459638 341.75119485274763 368.8136982018361 337.8801660491306C378.15863755770835 334.00913724551356 396.1843087289206 357.68710362559995 407.7423127809863 368.42370759750065C419.30031683305197 379.16031156940136 418.67240867636355 373.3746741283543 424.29211765175125 389.4158651142538C429.9118266271389 405.4570561001533 443.26496291964907 430.73020828999177 434.7169158628472 445.4214243298184 "></path><path d="M416.1947451011675 392.9438948173801C419.94121775142594 403.6380221413132 428.84330861309934 420.48679026787215 423.14461057523147 430.2809342944232C417.44591253736354 440.0750783209743 398.38099282171305 444.3822768741987 388.84099451940165 439.95578614482537C379.30099621709024 435.529295415452 380.18246426667866 419.1628143837867 377.35261872413656 409.0337787934312C374.52277318159446 398.9047432030757 374.8709622880286 401.84621045406357 375.2577359151996 391.33641531111914C375.6445095423706 380.8266201681747 372.97917256397585 361.167447976376 379.20913213455736 358.586762107298C385.4390917051389 356.00607623822 397.4562058192804 371.7913871582776 405.16154185399085 378.9491231395447C412.8668778887013 386.10685912081186 412.44827245090903 382.2497674934471 416.1947451011675 392.9438948173801C419.94121775142594 403.6380221413132 428.84330861309934 420.48679026787215 423.14461057523147 430.2809342944232 "></path><path d="M408.09737255058377 396.4719702968737C409.97060887571297 401.8190339588402 414.42165430654967 410.24341802211967 411.57230528761573 415.1404900353952C408.7229562686818 420.03756204867074 399.19049641085655 422.19116132528296 394.4204972597008 419.9779159605963C389.6504981085451 417.7646705959096 390.0912321333393 409.5814300800769 388.6763093620683 404.5169122848992C387.26138659079726 399.4523944897215 387.4354811440143 400.9231281152154 387.6288679575998 395.66823054374316C387.8222547711853 390.41333297227095 386.48958628198795 380.5837468763716 389.6045660672787 379.2934039418326C392.71954585256947 378.0030610072936 398.7281029096402 385.89571646732236 402.58077092699546 389.4745844579559C406.43343894435066 393.0534524485895 406.2241362254545 391.1249066349072 408.09737255058377 396.4719702968737C409.97060887571297 401.8190339588402 414.42165430654967 410.24341802211967 411.57230528761573 415.1404900353952 "></path></g></svg>