<svg xmlns="http://www.w3.org/2000/svg" version="1.1" xmlns:xlink="http://www.w3.org/1999/xlink" xmlns:svgjs="http://svgjs.dev/svgjs" viewBox="0 0 800 800" opacity="1"><defs><linearGradient x1="50%" y1="0%" x2="50%" y2="100%" id="uundulate-grad"><stop stop-color="hsl(184, 74%, 44%)" stop-opacity="1" offset="45%"></stop><stop stop-color="hsl(332, 87%, 70%)" stop-opacity="1" offset="100%"></stop></linearGradient></defs><g stroke-width="2" stroke="url(#uundulate-grad)" fill="none"><path d="M1249.5514165069976 -679.8247533774295C1530.4290105887499 -26.68903065297627 1932.3715841842063 1549.4135311110217 1644.9723923187153 1922.5107746462381C1357.5732004532251 2295.6080181814546 397.7782230297453 1443.700931069805 -129.96470444735633 1111.0420155916136C-657.7076319244577 778.3831001134217 -771.3073853972345 713.0275637591385 -888.1936595713762 325.74798035092044C-1005.079933745518 -61.531603057297616 -937.8841538785854 -427.42317752157214 -691.0188204832335 -747.8999847678335C-444.1534870878818 -1068.3767920140954 -107.52552531332367 -1226.7230343041351 296.75994072630874 -1212.5406944311333C701.0454067659412 -1198.3583545581314 968.6738224252458 -1332.9604761018827 1249.5514165069976 -679.8247533774295C1530.4290105887499 -26.68903065297627 1932.3715841842063 1549.4135311110217 1644.9723923187153 1922.5107746462381 "></path><path d="M1234.3808538630738 -660.5421287138469C1510.2427766219375 -19.06954389518728 1905.0078042603323 1528.888329265882 1622.740740821011 1895.323122023684C1340.4736773816899 2261.7579147814854 397.81789598362934 1425.0634542254015 -120.50105064566651 1098.3448765236058C-638.8199972749626 771.6262988218105 -750.3911837214398 707.437825616711 -865.1902029996148 327.0739490550684C-979.9892222777897 -53.289927506574486 -913.993367051338 -412.6477238554153 -671.5363431809033 -727.4017309722794C-429.07931931046846 -1042.1557380891436 -98.46257113902743 -1197.6743689097184 298.60351157846867 -1183.7452851058772C695.6695942959648 -1169.816201302036 958.5189311042104 -1302.0147135325062 1234.3808538630738 -660.5421287138469C1510.2427766219375 -19.06954389518728 1905.0078042603323 1528.888329265882 1622.740740821011 1895.323122023684 "></path><path d="M1219.2102607015718 -641.2595956029984C1490.0565121375466 -11.450148690132892 1877.64399381888 1508.363035868008 1600.5090588057283 1868.1353778483954C1323.374123792577 2227.907719828782 397.85753841993574 1406.4258858282633 -111.03742736155505 1085.647645902864C-619.9323931430457 764.8694059774652 -729.4750125632233 701.8479959215492 -842.1867769454315 328.399826206482C-954.8985413276396 -45.0483435085855 -890.1026107416687 -397.872361741993 -652.053896396151 -706.9035687294595C-414.00518205063315 -1015.9347757169262 -89.39964748230932 -1168.625795068036 300.4470519130505 -1154.9499673333557C690.2937513084103 -1141.2741395986752 948.3640092655969 -1271.069042515864 1219.2102607015718 -641.2595956029984C1490.0565121375466 -11.450148690132892 1877.64399381888 1508.363035868008 1600.5090588057283 1868.1353778483954 "></path><path d="M1204.039606504914 -621.9769099042594C1469.8701866180004 -3.8306008971874235 1850.2801223422716 1487.837895058025 1578.2773157552897 1840.9477862609974C1306.2745091683078 2194.0576774639703 397.89711982108565 1387.7884700190161 -101.57386511259983 1072.9505678700134C-601.044850046285 758.1126657210107 -708.5589024401631 696.258318814278 -819.1834119264043 329.7258559457862C-929.8079214126457 -36.80660692270612 -866.2119154671559 -383.09684704068013 -632.571510646555 -686.4052538987492C-398.9311058259543 -989.7136607568182 -80.33678486074746 -1139.577068638463 302.29053121247625 -1126.1544969729434C684.9178472856995 -1112.7319253074238 938.2090263918271 -1240.1232189113314 1204.039606504914 -621.9769099042594C1469.8701866180004 -3.8306008971874235 1850.2801223422716 1487.837895058025 1578.2773157552897 1840.9477862609974 "></path><path d="M1188.8690438609901 -602.6944073109892C1449.683952651188 3.78876379028884 1822.9163424183976 1467.3125711425728 1556.045664257585 1813.7600115681307C1289.174986096772 2160.2074519936887 397.9367927749697 1369.1508711042998 -92.11021131091002 1060.2533067316936C-582.15721539679 751.3557423590873 -687.6427007643684 690.6684586015385 -796.179955354643 331.0517025796214C-904.7172099449174 -28.565053442295266 -842.3211286399085 -368.32151544483577 -613.0890333442247 -665.9071221735073C-383.8569380485409 -963.4927289021789 -71.27383068645122 -1110.5285253143588 304.13410206463595 -1097.3592097179999C679.5420348157234 -1084.189894121641 928.0541350707917 -1209.1775784122674 1188.8690438609901 -602.6944073109892C1449.683952651188 3.78876379028884 1822.9163424183976 1467.3125711425728 1556.045664257585 1813.7600115681307 "></path><path d="M1173.6984812170658 -583.4118742001409C1429.4977186843762 11.408158995343456 1795.552562494524 1446.7872777446983 1533.8140127598808 1786.5722673928422C1272.0754630252372 2126.357257040985 397.97646572885424 1350.513302707162 -82.64655750922043 1047.5560761109518C-563.2695807472949 744.5988495147412 -666.7264990885737 685.0786289063763 -773.1764987828815 332.377579731035C-879.6264984771891 -20.32346944430651 -818.4303418126611 -353.5461533314135 -593.6065560418944 -645.4089599306876C-368.78277027112745 -937.2717665299615 -62.21087651215498 -1081.4799514726765 305.9776729167959 -1068.5638919454782C674.166222345747 -1055.6478324182801 917.8992437497564 -1178.231907395625 1173.6984812170658 -583.4118742001409C1429.4977186843762 11.408158995343456 1795.552562494524 1446.7872777446983 1533.8140127598808 1786.5722673928422 "></path><path d="M1158.5279185731424 -564.1293716068706C1409.3114847175639 19.027523682819947 1768.18878257065 1426.2619538292465 1511.5823612621762 1759.3844926999755C1254.9759399537024 2092.5070315707044 398.01613868273853 1331.875703792446 -73.18290370753061 1034.8588149726324C-544.3819460977998 737.8419261528179 -645.8102974127792 679.4887686936368 -750.17304221112 333.70342636487044C-854.5357870094608 -12.08191596389588 -794.5395549854138 -338.77082173556937 -574.124078739564 -624.9108282054458C-353.70860249371424 -911.0508346753222 -53.147922337858745 -1052.4314081485722 307.8212437689558 -1039.7686046905346C668.7904098757706 -1027.1058012324972 907.744352428721 -1147.286266896561 1158.5279185731424 -564.1293716068706C1409.3114847175639 19.027523682819947 1768.18878257065 1426.2619538292465 1511.5823612621762 1759.3844926999755 "></path><path d="M1143.3574779995315 -544.8467164257098C1389.125372821064 26.647040958186835 1740.8251247170888 1405.736782501685 1489.3508318347845 1732.1968705949994C1237.8765389524797 2058.6569586883134 398.0559337069351 1313.2382574656203 -63.719127835528525 1022.1617064222028C-525.4941893779923 731.0851553787852 -624.893973666672 673.899061068787 -727.169463569046 335.0294255865965C-829.4449534714201 -3.8402098955943984 -770.648646087854 -323.9953375518344 -554.6414793669212 -604.4125438923134C-338.6343126459883 -884.8297502327923 -44.08484609325001 -1023.3827122365772 309.66493669142824 -1010.9731648477006C663.4147194761067 -998.563617458824 897.5895831779983 -1116.3404738096065 1143.3574779995315 -544.8467164257098C1389.125372821064 26.647040958186835 1740.8251247170888 1405.736782501685 1489.3508318347845 1732.1968705949994 "></path><path d="M1128.1868238028728 -525.5641833148615C1368.9390473015178 34.26643616324145 1713.4612532404803 1385.211489103811 1467.1190887843454 1705.0091264197108C1220.7769243282105 2024.8067637356103 398.09551510808524 1294.6006890684826 -54.255565586573084 1009.464475801461C-506.6066462812315 724.3282625344395 -603.9778635436116 668.3092313736254 -704.1660985500189 336.35530273800987C-804.3543335564261 4.401374102394357 -746.757950813341 -309.2199754384121 -535.1590936173252 -583.9143816494936C-323.56023642130936 -858.6087878605749 -35.021983471688145 -994.3341383948948 311.508415990854 -982.177847075179C658.038815453396 -970.021555755463 887.4346003042285 -1085.3948027929641 1128.1868238028728 -525.5641833148615C1368.9390473015178 34.26643616324145 1713.4612532404803 1385.211489103811 1467.1190887843454 1705.0091264197108 "></path><path d="M1113.0162306413713 -506.2815281337006C1348.752782817127 41.88595343860834 1686.0974427990282 1364.6863177762493 1444.8874067690626 1677.8215043147343C1203.6773707390976 1990.9566908532197 398.1351575443914 1275.9632427416568 -44.79194230246185 996.7673672510318C-487.71904214931465 717.5714917604064 -583.0616923853952 662.7195237487763 -681.1626724958355 337.68130195973595C-779.2636526062761 12.643080170695612 -722.8671945036717 -294.44449125467736 -515.6766468325729 -563.4160973363612C-308.48609916147416 -832.3877034180451 -25.959059814970033 -965.2854424829 313.3519563254358 -953.3824072323448C652.6629724658414 -941.4793719817897 877.279678465615 -1054.4490097060097 1113.0162306413713 -506.2815281337006C1348.752782817127 41.88595343860834 1686.0974427990282 1364.6863177762493 1444.8874067690626 1677.8215043147343 "></path><path d="M1097.8456679974474 -486.9989950228522C1328.5665488503146 49.50534864366318 1658.7336628751546 1344.1610243783757 1422.6557552713584 1650.6337601394466C1186.5778476675623 1957.1064959005166 398.17483049827547 1257.325674344519 -35.32828850077203 984.0701366302901C-468.83140749981953 710.8145989160616 -562.1454907096006 657.1296940536145 -658.1592159240741 339.0071791111495C-754.1729411385477 20.884664168684594 -698.9764076764245 -279.669129141255 -496.1941695302427 -542.9179350935414C-293.41193138406084 -806.1667410458277 -16.896105640673795 -936.2368686412176 315.19552717759575 -924.5870894598231C647.2871599958651 -912.9373102784288 867.1247871445796 -1023.5033386893674 1097.8456679974474 -486.9989950228522C1328.5665488503146 49.50534864366318 1658.7336628751546 1344.1610243783757 1422.6557552713584 1650.6337601394466 "></path><path d="M1082.6751358711017 -467.7163398416915C1308.3803454010808 57.12486591903007 1631.3699134688586 1323.6358530508141 1400.424134291232 1623.44613803447C1169.4783551136056 1923.256423018126 398.2145339697381 1238.6882280176933 -25.86460418150409 971.3730280798609C-449.9437423327464 704.0578281420285 -541.2292585162278 651.5399864287651 -635.1557288347345 340.3331783328756C-729.0821991532414 29.126370236986077 -675.085590331599 -264.8936449575201 -476.71166171033417 -522.419650780409C-278.3377330890694 -779.9456566032978 -7.833120948799433 -907.1881727292227 317.0391285473338 -895.791649616989C641.9113780434668 -884.3951265047554 856.9699263411226 -992.5575456024128 1082.6751358711017 -467.7163398416915C1308.3803454010808 57.12486591903007 1631.3699134688586 1323.6358530508141 1400.424134291232 1623.44613803447 "></path><path d="M1067.5045427095997 -448.43383724842124C1288.1940809166908 64.74423060650633 1604.0061030274064 1303.110529135362 1378.1924522759496 1596.258363341603C1152.3788015244927 1889.4061975478444 398.2541764060443 1220.0506291029774 -16.40098089739263 958.675766941541C-431.0561382008294 697.3009047801047 -520.3130873580112 645.9501262160252 -612.1523027805513 341.65902496671083C-703.9915182030911 37.36792371739648 -651.1948340219299 -250.11831336167597 -457.2292149255819 -501.9215190551673C-263.2635958292342 -753.7247247486586 1.2298027079186795 -878.1396294051185 318.88266888191583 -866.9963623620456C636.5355350559123 -855.8530953189727 846.815004502509 -961.6119051033488 1067.5045427095997 -448.43383724842124C1288.1940809166908 64.74423060650633 1604.0061030274064 1303.110529135362 1378.1924522759496 1596.258363341603 "></path><path d="M1052.334010583254 -429.1511820672604C1268.0078774674566 72.36374788187368 1576.6423536211105 1282.5853578078008 1355.960831295823 1569.0707412366273C1135.2793089705356 1855.5561246654543 398.29387987750647 1201.413182776152 -6.937296578124801 945.9786583911118C-412.1684730337563 690.544134006072 -499.39685516463845 640.3604185911759 -589.1488156912117 342.98502418843714C-678.9007762177848 45.60962978569819 -627.3040166771043 -235.3428291779411 -437.7467071056735 -481.423234742035C-248.18939753424263 -727.5036403061287 10.292787399793042 -849.0909334931237 320.72627025165366 -838.2009225192114C631.1597531035143 -827.3109115452992 836.6601436990518 -930.6661120163941 1052.334010583254 -429.1511820672604C1268.0078774674566 72.36374788187368 1576.6423536211105 1282.5853578078008 1355.960831295823 1569.0707412366273 "></path><path d="M1037.163600527221 -409.8685268860995C1247.821796088535 79.98326515724057 1549.278726285127 1262.0601864802393 1333.7293323860094 1541.8831191316513C1118.179938486891 1821.7060517830632 398.3337054192816 1182.7757364493264 2.526509811455526 933.2815498406826C-393.28068579637056 683.7873632320391 -478.4805009009532 634.7707109663268 -566.1452065315596 344.311023410163C-653.8099121621658 53.851335853999444 -603.4130772619664 -220.56734499420622 -418.2640772154525 -460.92495042890255C-233.11507716893868 -701.2825558635989 19.355894161979904 -820.0422375811287 322.5699936917042 -809.4054826763772C625.7840932214285 -798.7687277716259 826.505404965907 -899.7203189294394 1037.163600527221 -409.8685268860995C1247.821796088535 79.98326515724057 1549.278726285127 1262.0601864802393 1333.7293323860094 1541.8831191316513 "></path><path d="M1021.9928852954065 -390.5859022225168C1227.635409533832 87.60275191502933 1521.9147937733628 1241.5349846350991 1311.4975283004142 1514.695466509097C1101.080262827466 1787.8559483830945 398.3732257852753 1164.1382596049225 11.990011025254603 920.5844107726753C-374.3932037347661 677.030561940428 -457.56445181304923 629.1809728238991 -543.1419025476887 345.63699211431094C-628.7193532823283 62.0930114047228 -579.5224430226097 -205.7918913280496 -398.78175250101276 -440.42669663334834C-218.04106197941587 -675.0615019386471 28.418695748385517 -790.993572186712 324.4134119559735 -780.6100733511213C620.4081281635615 -770.2265745155306 816.350361056981 -868.7745563600629 1021.9928852954065 -390.5859022225168C1227.635409533832 87.60275191502933 1521.9147937733628 1241.5349846350991 1311.4975283004142 1514.695466509097 "></path><path d="M1006.8223226514826 -371.3033691116684C1207.4491755670197 95.22214712008372 1494.5510138494888 1221.0096912372255 1289.2658768027095 1487.5077223338085C1083.9807397559307 1754.005753430391 398.4128987391596 1145.5006912077847 21.45366482694419 907.8871801519333C-355.5055690852711 670.2736690960824 -436.64825013725454 623.5911431287373 -520.1384459759272 346.9628692657245C-603.6286418145999 70.33459540271133 -555.6316561953623 -191.01652921462733 -379.2992751986825 -419.9285343905285C-202.96689420200255 -648.8405395664297 37.481649922681754 -761.9449983450295 326.25698280813344 -751.8147555785997C615.0323156935854 -741.6845128121697 806.1954697359456 -837.8288853434208 1006.8223226514826 -371.3033691116684C1207.4491755670197 95.22214712008372 1494.5510138494888 1221.0096912372255 1289.2658768027095 1487.5077223338085 "></path><path d="M991.651760007559 -352.02071393050755C1187.2629416002073 102.84166439545106 1467.1872339256147 1200.4845199096635 1267.0342253050053 1460.3201002288324C1066.8812166843957 1720.1556805480009 398.45257169304386 1126.8632448809594 30.917318628633893 895.1900716015045C-336.6179344357761 663.5168983220497 -415.7320484614599 618.0014355038882 -497.13498940416576 348.2888684874506C-578.5379303468717 78.57630147101281 -531.740869368115 -176.24104503089245 -359.8167978963521 -399.43025007739607C-187.89272642458923 -622.6194551238998 46.54460409697799 -732.8963024330346 328.1005536602934 -723.0193157357655C609.656503223609 -713.1423290384963 796.0405784149104 -806.8830922564662 991.651760007559 -352.02071393050755C1187.2629416002073 102.84166439545106 1467.1872339256147 1200.4845199096635 1267.0342253050053 1460.3201002288324 "></path><path d="M976.4811973636351 -332.7381808196592C1167.0767076333955 110.46105960050545 1439.823454001741 1179.95922651179 1244.802573807301 1433.1323560535438C1049.7816936128606 1686.3054855952973 398.49224464692816 1108.2256764838212 40.38097243032348 882.4928409807628C-317.73029978628097 656.7600054777042 -394.81584678566526 612.4116058087263 -474.13153283240433 349.6147456388642C-553.4472188791433 86.8178854690018 -507.8500825408676 -161.46568291747008 -340.33432059402173 -378.93208783457635C-172.8185586471759 -596.3984927516824 55.607558271274115 -703.8477285913523 329.9441245124535 -694.2239979632438C604.2806907536326 -684.6002673351354 785.885687093875 -775.937421239824 976.4811973636351 -332.7381808196592C1167.0767076333955 110.46105960050545 1439.823454001741 1179.95922651179 1244.802573807301 1433.1323560535438 "></path><path d="M961.310756790024 -313.45555615607645C1146.8905957368956 118.08054635829444 1412.4597961481795 1159.4340246666502 1222.571044379909 1405.9447034309896C1032.682292611638 1652.4553821953286 398.53203967112495 1089.5881996394178 49.8447483023258 869.7957019127555C-298.84254306647335 650.0032041860932 -373.8995230395581 606.8218676662987 -451.12795419033034 350.9407143430117C-528.3563853411026 95.05956101972492 -483.9591736433078 -146.69022925131344 -320.85172122137897 -358.43383403902203C-157.74426879945008 -570.1774388267306 64.67063451588297 -674.7990631969355 331.7878174349257 -665.4285886379879C598.9050003539687 -656.0581140790403 775.7309178431522 -744.9916586704474 961.310756790024 -313.45555615607645C1146.8905957368956 118.08054635829444 1412.4597961481795 1159.4340246666502 1222.571044379909 1405.9447034309896 "></path><path d="M946.1400720757874 -294.1730230452281C1126.7042396997708 125.69994156334906 1385.095894153993 1138.9087312687761 1200.339270811892 1378.756959255701C1015.5826474697906 1618.605187242626 398.57159055469674 1070.95063124228 59.308280033702886 857.098471292014C-279.95503048729086 643.2463113417477 -352.983443434076 601.2320379711371 -428.1246196888814 352.2665914944255C-503.26579594368684 103.30114501771368 -460.06850888637297 -131.91486713789118 -301.3693659893611 -337.9356717962022C-142.67022309234926 -543.9564764545132 73.7334666198667 -645.7504893552532 333.6312662167734 -636.6332708654662C593.5290658136801 -627.5160523756792 765.5759044518043 -714.0459876538052 946.1400720757874 -294.1730230452281C1126.7042396997708 125.69994156334906 1385.095894153993 1138.9087312687761 1200.339270811892 1378.756959255701 "></path><path d="M930.9696315021763 -274.89036786406723C1106.5181278032712 133.31945883871595 1357.7322363004314 1118.383559941215 1178.1077413845 1351.569337150725C998.4832464685683 1584.755114360235 398.61138557889353 1052.3131849154545 68.77205590570497 844.4013627415845C-261.06727376748336 636.4895405677148 -332.06711968796884 595.642330346288 -405.1210410468074 353.59259071615134C-478.17496240564606 111.54285108601516 -436.17759998881314 -117.13938295415619 -281.8867666167182 -317.43738748306987C-127.59593324462332 -517.7353920119833 82.79654286447544 -616.7017934432583 335.4749591392456 -607.8378310226321C588.1533754140162 -598.973868602006 755.4211352010814 -683.1001945668506 930.9696315021763 -274.89036786406723C1106.5181278032712 133.31945883871595 1357.7322363004314 1118.383559941215 1178.1077413845 1351.569337150725 "></path><path d="M915.7990688582524 -255.607865270797C1086.3318938364591 140.93882352619244 1330.3684563765573 1097.8582360257628 1155.8760898867954 1324.3815624578583C981.3837233970332 1550.9048888899538 398.6510585327778 1033.6755860007381 78.23570970739479 831.7041016032647C-242.17963911798824 629.7326172057913 -311.1509180121742 590.0524701335478 -382.117584475046 354.9184373499868C-453.0842509379178 119.78440456642579 -412.28681316156576 -102.36405135831205 -262.40428931438794 -296.93925575782805C-112.52176546721012 -491.51446015734416 91.85949703877168 -587.6532501191541 337.31852999140574 -579.0425437676886C582.7775629440398 -570.4318374162232 745.2662438800462 -652.1545540677865 915.7990688582524 -255.607865270797C1086.3318938364591 140.93882352619244 1330.3684563765573 1097.8582360257628 1155.8760898867954 1324.3815624578583 "></path><path d="M900.6285062143288 -236.32521008963613C1066.1456598696468 148.55834080155955 1303.0046764526837 1077.3330646982013 1133.644438389091 1297.1939403528822C964.2842003254984 1517.0548160075632 398.6907314866621 1015.0381396739128 87.69936350908438 819.0069930528355C-223.29200446849313 622.9758464317583 -290.2347163363795 584.4627625086987 -359.1141279032845 356.24443657171287C-427.9935394701895 128.02611063472705 -388.39602633431844 -87.58856717457729 -242.92181201205756 -276.44097144469583C-97.44759768979668 -465.29337571481426 100.92245121306792 -558.6045542071591 339.16210084356544 -550.2471039248544C577.4017504740632 -541.8896536425498 735.1113525590108 -621.2087609808319 900.6285062143288 -236.32521008963613C1066.1456598696468 148.55834080155955 1303.0046764526837 1077.3330646982013 1133.644438389091 1297.1939403528822 "></path><path d="M885.457943570405 -217.04267697878777C1045.9594259028345 156.17773600661394 1275.64089652881 1056.8077713003274 1111.4127868913865 1270.0061961775937C947.1846772539632 1483.2046210548606 398.7304044405464 996.400571276775 97.1630173107742 806.3097624320937C-204.40436981899813 616.2189535874129 -269.31851466058487 578.8729328135369 -336.11067133152306 357.57031372312645C-402.9028280024612 136.26769463271603 -364.5052395070711 -72.81320506115492 -223.43933470972718 -255.9428092018759C-82.37342991238324 -439.07241334259686 109.98540538736415 -529.5559803654768 341.0056716957256 -521.4517861523328C572.025938004087 -513.3475919391889 724.9564612379752 -590.2630899641897 885.457943570405 -217.04267697878777C1045.9594259028345 156.17773600661394 1275.64089652881 1056.8077713003274 1111.4127868913865 1270.0061961775937 "></path><path d="M870.2873809264811 -197.76014386793952C1025.7731919360224 163.79713121166856 1248.2771166049358 1036.2824779024531 1089.181135393682 1242.818452002305C930.0851541824281 1449.3544261021566 398.7700773944307 977.7630028796366 106.62667111246378 793.6125318113523C-185.51673516950314 609.4620607430675 -248.40231298479023 573.283103118375 -313.1072147597616 358.89619087454C-377.8121165347329 144.5092786307049 -340.6144526798238 -58.03784294773254 -203.9568574073969 -235.44464695905606C-67.29926213496992 -412.85145097037946 119.04835956166039 -500.50740652379443 342.8492425478855 -492.6564683798112C566.6501255341104 -484.80553023582803 714.8015699169398 -559.3174189475476 870.2873809264811 -197.76014386793952C1025.7731919360224 163.79713121166856 1248.2771166049358 1036.2824779024531 1089.181135393682 1242.818452002305 "></path><path d="M855.116696212245 -178.47748868677866C1005.5868358988976 171.41664848703567 1220.9132146107495 1015.7573065748918 1066.9493618256652 1215.630829897329C912.9855090405808 1415.504353219766 398.8096282780025 959.1255565528113 116.09020284384098 780.915423260923C-166.62922259032052 602.7052899690348 -227.4862333793081 567.6933954935257 -290.10388025831264 360.2221900962661C-352.72152713731714 152.75098469900627 -316.7237879228889 -43.26235876399778 -184.47450217537903 -214.94636264592373C-52.2252164278691 -386.6303665278496 128.11119166564413 -471.4587106117995 344.69269132973295 -463.8610285369771C561.2741909938218 -456.26334646215463 704.6465565255919 -528.371625860593 855.116696212245 -178.47748868677866C1005.5868358988976 171.41664848703567 1220.9132146107495 1015.7573065748918 1066.9493618256652 1215.630829897329 "></path><path d="M839.9462251210555 -159.1949555759303C985.4006934848198 179.03604369209017 1193.5495262396098 995.2320131770177 1044.7178018806949 1188.4430857220405C895.8860775217802 1381.6541582670634 398.84939278462116 940.4879881556733 125.55394819826506 768.2181926401811C-147.74149638809104 595.9483971246891 -206.56994015077908 562.1035657983639 -267.1003321338168 361.54806724767946C-327.6307241168545 160.99256869699514 -292.8329095429072 -28.48699665057552 -164.99193332031427 -194.4482004031039C-37.1509570977214 -360.4094041556322 137.17423739267474 -442.41013677011716 346.53635373462726 -435.06571076445545C555.8984700765798 -427.72128475879373 694.4917567572911 -497.42595484395076 839.9462251210555 -159.1949555759303C985.4006934848198 179.03604369209017 1193.5495262396098 995.2320131770177 1044.7178018806949 1188.4430857220405 "></path><path d="M824.7756929947097 -139.9123919475038C965.2144900355859 186.6554694147228 1166.185776833314 974.7067502967218 1022.4861809005686 1161.25537206433C878.7865849678235 1347.803993831938 398.8890962560836 921.8504502761134 135.01763251753277 755.5209925370177C-128.8538312210179 589.1915347979218 -185.6537079574063 556.5137666207802 -244.09684504447716 362.87397491667116C-302.5399821315481 169.23418321256213 -268.94209219808175 -13.711604019575134 -145.50942550040583 -173.95000764270583C-22.076758802729955 -334.18841126583675 146.2372220845491 -413.3615324108566 348.3799551043653 -406.2703624743557C550.5226881241815 -399.17919253785476 684.3368959538338 -466.4802533097305 824.7756929947097 -139.9123919475038C965.2144900355859 186.6554694147228 1166.185776833314 974.7067502967218 1022.4861809005686 1161.25537206433 "></path><path d="M809.6051303507859 -120.6297978014992C945.0282560687733 194.27492565493355 1138.82199690944 954.181517934004 1000.2545294028641 1134.0676889241977C861.6870618962885 1313.9538599143907 398.92876920996787 903.2129429141316 144.48128631922248 742.823822951432C-109.96619657152286 582.4347029887326 -164.73750628161167 550.9239979607746 -221.09338847271573 364.199913103241C-277.4492706638198 177.47582824570725 -245.05130537083443 1.063819129003491 -126.0269481980755 -153.45178436472975C-7.002591025316633 -307.9673878584631 155.30017625884534 -384.312897534018 350.22352595652524 -377.4749836666778C545.1468756542051 -370.6370697993376 674.1820046327985 -435.53452125793206 809.6051303507859 -120.6297978014992C945.0282560687733 194.27492565493355 1138.82199690944 954.181517934004 1000.2545294028641 1134.0676889241977 "></path><path d="M794.4345677068623 -101.34720365549458C924.8420221019612 201.89438189514442 1111.458216985566 933.6562855712864 978.0228779051597 1106.8800057840654C844.5875388247532 1280.1037259968443 398.96844216385205 884.5754355521499 153.94494012091218 730.1266533658468C-91.0785619220278 575.6778711795437 -143.82130460581703 545.3342293007693 -198.08993190095424 365.5258512898108C-252.3585591960915 185.71747327885237 -221.16051854358705 15.839242277582116 -106.54447089574518 -132.95356108675367C8.07157675209669 -281.74636445108945 164.36313043314158 -355.26426265717936 352.06709680868516 -348.67960485899994C539.7710631842288 -342.09494706082046 664.0271133117631 -404.58878920613364 794.4345677068623 -101.34720365549458C924.8420221019612 201.89438189514442 1111.458216985566 933.6562855712864 978.0228779051597 1106.8800057840654 "></path><path d="M779.2639745453603 -82.06460950948997C904.655757617571 209.5138381353553 1084.094406544114 913.1310532085686 955.7911958898771 1079.692322643933C827.4879852356403 1246.2535920792975 399.0080846001583 865.9379281901683 163.40856340502376 717.4294837802615C-72.19095779011082 568.9210393703543 -122.90513344760052 539.7444606407637 -175.08650584677093 366.8517894763804C-227.26787824594135 193.95911831199737 -197.26976223391785 30.614665426160627 -87.06202411099292 -112.45533780877759C23.145714011931886 -255.5253410437158 173.4260540898597 -326.21562778034075 353.91063714326697 -319.88422605132206C534.3952201966745 -313.55282432230337 653.8721914731495 -373.6430571543352 779.2639745453603 -82.06460950948997C904.655757617571 209.5138381353553 1084.094406544114 913.1310532085686 955.7911958898771 1079.692322643933 "></path><path d="M764.0934424190145 -62.782106916219846C884.469554168337 217.13320282283166 1056.7306571378183 892.6057292931164 933.5595749097508 1052.5045479510663C810.3884926816834 1212.403366609016 399.04778807162074 847.3003292754522 172.87224772429158 704.7322226419415C-53.303292623037635 562.1641160084307 -101.9889012542277 534.1546004280235 -152.08301875743132 368.1776361102159C-202.17713626063494 202.20067179240812 -173.3789448890924 45.38999702200488 -67.57951629108447 -91.95720608353588C38.21991230692345 -229.30440918907658 182.48903878173405 -297.16708445623647 355.75423851300513 -291.08893879637856C529.019438244276 -285.0107931365206 643.7173306696923 -342.6974166552712 764.0934424190145 -62.782106916219846C884.469554168337 217.13320282283166 1056.7306571378183 892.6057292931164 933.5595749097508 1052.5045479510663 "></path><path d="M748.9228492575128 -43.49945173505898C864.2832896839464 224.75272009819878 1029.3668466963663 872.080557965555 911.3278928944683 1025.3169258460905C793.2889390925702 1178.5532937266255 399.0874305079268 828.6628829486267 182.33587100840305 692.0351140915122C-34.415688491120704 555.407345234398 -81.07273009601124 528.5648928031744 -129.079592703248 369.50363533194195C-177.08645531048478 210.44237786070948 -149.4881885794232 60.16548120573975 -48.097069506332275 -71.45892177040355C53.294049566758645 -203.08332474654668 191.55196243845216 -268.1183885442416 357.59777884758694 -262.29349895354443C523.6435952567217 -256.4686093628472 633.5624088310788 -311.7516235683165 748.9228492575128 -43.49945173505898C864.2832896839464 224.75272009819878 1029.3668466963663 872.080557965555 911.3278928944683 1025.3169258460905 "></path><path d="M733.7522866135889 -24.21691862421062C844.0970557171345 232.37211530325317 1002.0030667724923 851.555264567681 889.0962413967638 998.1291816708015C776.1894160210354 1144.7030987739222 399.1271034618112 810.0253145514887 191.79952481009275 679.3378834707705C-15.528053841625649 548.6504523900524 -60.156528420216546 522.9750631080126 -106.07613613148652 370.8295124833554C-151.9957438427565 218.68396185869824 -125.59740175217581 74.94084331916201 -28.614592204001895 -50.960759527583605C68.36821734417197 -176.86236237432928 200.6149166127484 -239.06981470255926 359.441349699747 -233.4981811810228C518.2677827867452 -227.9265476594863 623.4075175100436 -280.8059525516744 733.7522866135889 -24.21691862421062C844.0970557171345 232.37211530325317 1002.0030667724923 851.555264567681 889.0962413967638 998.1291816708015 "></path><path d="M718.5817850048215 -4.934324478206008C823.9108827854784 239.99157154346403 974.6393478837745 831.0300322049634 866.8646509342157 970.9414985306694C759.0899539846564 1110.8529648563754 399.16683745085174 791.3878071895069 201.2632396469387 666.640713885185C3.3596418430256563 541.8936205808632 -39.24026570926566 517.3852944480072 -83.07261852456884 372.15545066992524C-126.90497133987196 226.92560689184347 -101.70655388977224 89.71626646774064 -9.13205386651532 -30.462536249607524C83.44244615674165 -150.64133896695563 209.6779318222009 -210.0211798257206 361.28498158706304 -204.70280237334487C512.8920313519252 -199.3844249209692 613.2526872241644 -249.860220499876 718.5817850048215 -4.934324478206008C823.9108827854784 239.99157154346403 974.6393478837745 831.0300322049634 866.8646509342157 970.9414985306694 "></path><path d="M703.4111613257414 14.348269667798604C803.7245877835098 247.61102778367467 947.2755069247444 810.5047998422456 844.6329384013547 943.753815390537C741.9903698779653 1077.0028309388283 399.2064493695798 772.7502998275252 210.72683241347204 653.9435442995996C22.24721545736446 535.136788771674 -18.324125068627268 511.79552578800144 -60.0692229879636 373.4813888564951C-101.81432090729999 235.16725192498848 -77.81582809768116 104.49168961631915 10.350362400658753 -9.964312971631443C98.51655289899873 -124.42031555958204 218.74082496134088 -180.972544948882 363.1284914040667 -175.907423565667C507.5161578467927 -170.84230218245204 603.0977348679728 -218.91448844807758 703.4111613257414 14.348269667798604C803.7245877835098 247.61102778367467 947.2755069247444 810.5047998422456 844.6329384013547 943.753815390537 "></path><path d="M688.2405986818176 33.63089433138134C783.5383538166977 255.23051454146366 919.9117270008705 789.9795979971059 822.4012869036505 916.5661627679829C724.8908468064303 1043.1527275388596 399.2461223234641 754.1128229831215 220.19048621516174 641.2464052315922C41.13485010685952 528.3799874800629 2.592076607167371 506.2057876455742 -37.065766416202166 374.807357560643C-76.7236094395717 243.40892747571183 -53.92504127043384 119.2671432824759 29.832839702989133 10.533940823922762C113.59072067641205 -98.19926163463026 227.80377913563711 -151.9238795544652 364.97206225622676 -147.11201424041099C502.1403453768163 -142.30014892635677 592.9428435469375 -187.96872587870104 688.2405986818176 33.63089433138134C783.5383538166977 255.23051454146366 919.9117270008705 789.9795979971059 822.4012869036505 916.5661627679829 "></path><path d="M673.07009707305 52.913427442229704C763.3521808850417 262.8499097465183 892.5480081121527 769.4543045992318 800.1696964411021 889.3784185926943C707.7913847700515 1009.3025325861568 399.2858563125046 735.4752545859837 229.6542010520077 628.5491746108507C60.02254579151082 521.6230946357176 23.50833931811826 500.6159579504123 -14.062248809284426 376.1332347120565C-51.63283693668717 251.6505114737006 -30.034193408030205 134.04250539589816 49.31537804047571 31.032103066742593C128.66494948898162 -71.97829926241286 236.8667943450896 -122.87530571278285 366.81569414354294 -118.31669646788936C496.7645939419963 -113.75808722299593 582.7880132610584 -157.02305486205887 673.07009707305 52.913427442229704C763.3521808850417 262.8499097465183 892.5480081121527 769.4543045992318 800.1696964411021 889.3784185926943 "></path><path d="M657.8995344291261 72.19605210581244C743.1659469182296 270.46939650430716 865.1842281882787 748.9291027540924 777.9380449433977 862.1907659701401C690.6918616985167 975.4524291861878 399.3255292663889 716.8377777415799 239.1178548536974 615.8520355428432C78.91018044100588 514.8662933441066 44.4245409939129 495.02621980798483 8.941207762477006 377.45920341620433C-26.542125468958886 259.89218702442383 -6.14340658078288 148.8179590620549 68.79785534280603 51.53035686229691C143.73911726639494 -45.75724533746114 245.92974851938584 -93.82664031836606 368.65926499570287 -89.52128714263335C491.3887814720199 -85.21593396690065 572.6331219400231 -126.07729229268233 657.8995344291261 72.19605210581244C743.1659469182296 270.46939650430716 865.1842281882787 748.9291027540924 777.9380449433977 862.1907659701401 "></path><path d="M642.7289717852025 91.47864625181705C722.9797129514172 278.0888527445179 837.8204482644051 728.4038703913748 755.7063934456933 835.0030828300078C673.5923386269815 941.6022952686412 399.3652022202732 698.2002703795984 248.5815086553871 603.1548659572577C97.79781509050093 508.1094615349174 65.34074266970754 489.43645114797937 31.944664334238496 378.78514160277416C-1.451414001230603 268.13383205756895 17.747380246464445 163.59338221063354 88.28033264513641 72.028580140273C158.81328504380838 -19.536221930087493 254.99270269368208 -64.77800544152745 370.5028358478628 -60.72590833495548C486.0129690020435 -56.6738112283835 562.4782306189876 -95.13156024088391 642.7289717852025 91.47864625181705C722.9797129514172 278.0888527445179 837.8204482644051 728.4038703913748 755.7063934456933 835.0030828300078 "></path><path d="M627.5584091412787 110.76124039782167C702.7934789846049 285.7083089847288 810.456668340531 707.878638028657 733.4747419479888 807.8153996898754C656.4928155554467 907.752161351094 399.4048751741575 679.5627630176166 258.0451624570767 590.4576963716725C116.68544973999599 501.3526297257283 86.25694434550218 483.8466824879738 54.94812090599993 380.111079789344C23.63929746649768 276.37547709071407 41.63816707371177 178.36880535921205 107.76280994746674 92.52680341824907C173.8874528212217 6.6848014772861575 264.0556568679783 -35.72937056468885 372.3464067000227 -31.9305295272776C480.63715653206714 -28.131688489866406 552.3233392979522 -64.1858281890855 627.5584091412787 110.76124039782167C702.7934789846049 285.7083089847288 810.456668340531 707.878638028657 733.4747419479888 807.8153996898754 "></path><path d="M612.3878464973549 130.04377350866997C682.6072450177929 293.3277041897833 783.0928884166569 687.3533446307829 711.2430904502843 780.6276555145869C639.3932924839118 873.9019663983909 399.4445481280418 660.9251946204786 267.5088162587664 577.7604657509307C135.57308438949104 494.5957368813828 107.17314602129682 478.25685279281197 77.95157747776142 381.43695694075745C48.730008934225964 284.61706108870294 65.52895390095915 193.1441674726343 127.24528724979706 113.02496566106896C188.96162059863502 32.9057638495035 273.11861104227455 -6.680796723006438 374.18997755218265 -3.1352117547559715C475.26134406209076 0.41037321349449485 542.1684479769169 -33.24015717244333 612.3878464973549 130.04377350866997C682.6072450177929 293.3277041897833 783.0928884166569 687.3533446307829 711.2430904502843 780.6276555145869 "></path><path d="M597.2172838534311 149.32636765467458C662.4210110509806 300.947160429994 755.7291084927829 666.8281122680651 689.0114389525799 753.4399723744546C622.2937694123766 840.051832480844 399.4842210819261 642.2876872584968 276.9724700604561 565.0632961653453C154.4607190389861 487.8389050721937 128.0893476970915 472.6670841328065 100.95503404952285 382.7628951273273C73.82072040195425 292.85870612184806 89.41974072820648 207.91959062121293 146.72776455212744 133.52318893904504C204.03578837604834 59.12678725687715 282.1815652165708 22.367838153832167 376.0335484043426 25.660167052921906C469.8855315921144 28.952495952011645 532.0135566558815 -2.2944251206449735 597.2172838534311 149.32636765467458C662.4210110509806 300.947160429994 755.7291084927829 666.8281122680651 689.0114389525799 753.4399723744546 "></path><path d="M582.0467212095073 168.60896180067914C642.2347770841685 308.5666166702049 728.3653285689091 646.3028799053473 666.7797874548754 726.2522892343222C605.1942463408417 806.2016985632972 399.5238940358104 623.6501798965152 286.4361238621458 552.3661265797598C173.34835368848115 481.0820732630044 149.00554937288615 467.0773154728008 123.95849062128434 384.088833313897C98.91143186968253 301.1003511549932 113.3105275554538 222.69501376979156 166.21024185445776 154.02141221702112C219.10995615346172 85.3478106642508 291.244519390867 51.41647303067083 377.8771192565025 54.455545860599784C464.509719122138 57.494618690528796 521.8586653348461 28.651306931153442 582.0467212095073 168.60896180067914C642.2347770841685 308.5666166702049 728.3653285689091 646.3028799053473 666.7797874548754 726.2522892343222 "></path><path d="M566.8761585655835 187.89155594668375C622.0485431173563 316.18607291041565 701.0015486450352 625.7776475426296 644.548135957171 699.0646060941898C588.0947232693068 772.3515646457502 399.56356698969466 605.0126725345334 295.8997776638355 539.6689569941743C192.2359883379762 474.32524145381524 169.9217510486808 461.48754681279536 146.96194719304577 385.4147715004667C124.00214333741081 309.3419961881382 137.20131438270113 237.47043691837007 185.6927191567881 174.51963549499726C234.18412393087505 111.5688340716244 300.30747356516326 80.46510790750943 379.72069010866255 83.25092466827766C459.1339066521616 86.03674142904589 511.70377401381086 59.59703898295186 566.8761585655835 187.89155594668375C622.0485431173563 316.18607291041565 701.0015486450352 625.7776475426296 644.548135957171 699.0646060941898 "></path><path d="M551.7055806628707 207.17415009268836C601.8622938917549 323.8055291506264 673.6377534623722 605.2524151799118 622.3164692006774 671.8769229540576C570.9951849389827 738.5014307282032 399.6032246847899 586.3751651725516 305.363416206736 526.9717874085889C211.1236077286822 467.56840964462606 190.83793746568637 455.8977781527898 169.9653885060182 386.74070968703654C149.09283954635004 317.5836412212833 161.09208595115945 252.24586006694864 205.1751812003294 195.01785877297334C249.25827644949936 137.78985747899804 309.37041248067044 109.5137427843481 381.5642457020333 112.04630347595554C453.7580789233964 114.57886416756304 501.5488674339864 90.54277103475027 551.7055806628707 207.17415009268836C601.8622938917549 323.8055291506264 673.6377534623722 605.2524151799118 622.3164692006774 671.8769229540576 "></path><path d="M536.535048536525 226.45674423869298C581.6760904425208 331.42498539083726 646.2740040560764 584.727182817194 600.0848482205511 644.6892398139253C553.8956923850258 704.6512968106565 399.6429281562523 567.73765781057 314.82710052600385 514.2746178230035C230.01127289575538 460.811577835437 211.75416965905913 450.3080094927843 192.96887559535776 388.06664787360637C174.18358153165644 325.8252862544284 184.9829032959849 267.0212832155272 224.65768902023785 215.51608205094942C264.3324747444908 164.0108808863717 318.4333971725448 138.5623776611867 383.40784707177147 140.84168228363342C448.38229697099814 143.1209869060802 491.39400663052925 121.48850308654869 536.535048536525 226.45674423869298C581.6760904425208 331.42498539083726 646.2740040560764 584.727182817194 600.0848482205511 644.6892398139253 "></path><path d="M521.3644858926012 245.7393383846976C561.4898564757086 339.044441631048 618.9102241322025 564.2019504544764 577.8531967228466 617.501556673793C536.7961693134907 670.8011628931097 399.6826011101366 549.1001504485882 324.29075432769355 501.5774482374179C248.8989075452505 454.0547460262478 232.67037133485377 444.71824083277875 215.97233216711925 389.3925860601762C199.27429299938473 334.06693128757354 208.87369012323222 281.79670636410583 244.14016632256818 236.01430532892556C279.4066425219042 190.2319042937453 327.49635134684104 167.61101253802536 385.2514179239314 169.6370610913113C443.00648450102176 171.66310964459728 481.23911530949385 152.4342351383471 521.3644858926012 245.7393383846976C561.4898564757086 339.044441631048 618.9102241322025 564.2019504544764 577.8531967228466 617.501556673793 "></path><path d="M506.19390798988843 265.0219020131241C541.3036072501075 346.66386735368064 591.5464289495394 543.6766875741805 555.6215299663531 590.3138430160825C519.6966309831669 636.9509984579845 399.72225880523183 530.4626125690284 333.75439287059413 488.88024813425443C267.7865269359565 447.2978836994805 253.58655775185935 439.12844165519505 238.97577348009162 390.7184937291678C224.3649892083239 342.30854580314053 232.76446169169049 296.5720989951062 263.6226283661095 256.5124980893235C294.48079504052845 216.4528971835408 336.5592902623482 196.65961689728584 387.09497351730226 198.4324093814111C437.6306567722563 200.2052018655363 471.0842087296694 183.3799366725674 506.19390798988843 265.0219020131241C541.3036072501075 346.66386735368064 591.5464289495394 543.6766875741805 555.6215299663531 590.3138430160825 "></path><path d="M491.0233758635427 284.30448090033957C521.1174038008733 354.28330833510245 564.1826795432437 523.1514399526736 533.3899089862268 563.1261446171611C502.59713842920996 603.1008492816486 399.76196227669425 511.8250899482575 343.21807718986196 476.1830632898799C286.67419210302967 440.54103663150227 274.5027899452321 433.5386577364004 261.97926056943123 392.04441665694844C249.4557311936303 350.5501755774966 256.655279036516 311.3475068848958 283.10513618601794 277.0107061085106C309.55499333551995 242.6739053321254 345.6222749542226 225.7082365153354 388.9385748870403 227.22777293029992C432.25487481985806 228.7473093452644 460.92934792621213 214.32565346557675 491.0233758635427 284.30448090033957C521.1174038008733 354.28330833510245 564.1826795432437 523.1514399526736 533.3899089862268 563.1261446171611 "></path><path d="M475.85281321961895 303.5870750463442C500.93116983406105 361.9027645753132 536.8188996193696 502.6262075899559 511.1582574885223 535.9384614770288C485.49761535767493 569.2507153641016 399.80163523057854 493.18758258627577 352.6817309915516 463.4858937042944C305.5618267525247 433.7842048223131 295.41899162102675 427.94888907639483 284.98271714119267 393.37035484351827C274.5464426613586 358.79182061064165 280.5460658637633 326.1229300334743 302.58761348834827 297.50892938648667C324.6291611129333 268.89492873949905 354.6852291285188 254.75687139217405 390.78214573920025 256.0231517379778C426.8790623498818 257.2894320837815 450.77445660517674 245.27138551737517 475.85281321961895 303.5870750463442C500.93116983406105 361.9027645753132 536.8188996193696 502.6262075899559 511.1582574885223 535.9384614770288 "></path><path d="M460.6822200581171 322.8696691923488C480.7449053496707 369.522220815524 509.45508917791767 482.1009752272382 488.9265754732397 508.7507783368965C468.3980617685618 535.4005814465548 399.8412776668847 474.5500752242941 362.1453542756632 450.78872411870896C324.44943088444165 427.0273730131239 316.3351627792433 422.3591204163894 307.98614319537603 394.6962930300881C299.63712361150874 367.03346564378677 304.4368221734325 340.8983531820529 322.0700602731005 318.00715266446275C339.7032983727685 295.11595214687264 363.7481527852369 283.80550626901265 392.6256860737821 284.8185305456557C421.5032193623273 285.83155482229864 440.61953476656333 276.2171175691735 460.6822200581171 322.8696691923488C480.7449053496707 369.522220815524 509.45508917791767 482.1009752272382 488.9265754732397 508.7507783368965 "></path><path d="M445.51168793177135 342.1522633383534C460.55870190043663 377.1416770557348 482.09133977162185 461.5757428645204 466.6949544931134 481.56309519676415C451.298569214605 501.5504475290079 399.8809811383471 455.91256786231236 371.60903859493095 438.09155453312354C343.33709605151483 420.2705412039347 337.2513949726161 416.7693517563838 330.9896302847156 396.0222312166578C324.72786559681515 375.2751106769319 328.32763951825797 355.6737763306315 341.552568093009 338.5053759424389C354.77749666776 321.3369755542463 372.8111374771113 312.8541411458513 394.46928744352016 313.61390935333355C416.12743740992903 314.3736775608158 430.46467396310607 307.16284962097194 445.51168793177135 342.1522633383534C460.55870190043663 377.1416770557348 482.09133977162185 461.5757428645204 466.6949544931134 481.56309519676415 "></path><path d="M430.34111002905854 361.4348422255689C440.37245267483536 384.76111803715656 454.72754458895884 441.05049524301364 444.46328773661986 454.37539679784277C434.1990308842809 467.70029835267195 399.92063883344235 437.2750452415416 381.0726771378316 425.394369688749C362.2247154422208 413.5136941359565 358.16758138962166 411.1795678375892 353.993071597688 397.3481541444386C349.81856180575437 383.51674045128794 352.2184110867163 370.449184220421 361.03503013655023 359.0035839616259C369.85164918638424 347.5579837028309 381.87407639261846 341.90276076390086 396.3128430368911 342.40927290222237C410.75160968116364 342.9157850405439 420.30976738328167 338.1085664139813 430.34111002905854 361.4348422255689C440.37245267483536 384.76111803715656 454.72754458895884 441.05049524301364 444.46328773661986 454.37539679784277 "></path><path d="M415.1705626439238 380.7174058539954C420.1862339668122 392.3805437597892 427.36377992387395 420.52523236271776 422.23165149770443 427.1876831401323C417.099523071535 433.8501339175469 399.9603270461157 418.63750736198176 390.5363461983103 412.69716958558547C381.11236535050494 406.7568318091892 379.08379832420536 405.5897686600056 376.9965434282385 398.6740618134302C374.9092885322717 391.7583549668549 376.1092131727527 385.22457685142143 380.5175226976697 379.5017767220239C384.9258322225867 373.77897659262635 390.93704582570376 370.9513651231614 398.1564291478401 371.2046211923221C405.3758124699763 371.45787726148285 410.15489132103534 369.0542679482016 415.1705626439238 380.7174058539954C420.1862339668122 392.3805437597892 427.36377992387395 420.52523236271776 422.23165149770443 427.1876831401323 "></path></g></svg>